<svg width="157" height="48" viewBox="0 0 157 48" fill="none" xmlns="http://www.w3.org/2000/svg">
<mask id="mask0_494_112" style="mask-type:luminance" maskUnits="userSpaceOnUse" x="0" y="0" width="157" height="47">
<path d="M157 0H0V46.6757H157V0Z" fill="white"/>
</mask>
<g mask="url(#mask0_494_112)">
<path d="M138.173 46.311C137.766 46.311 137.388 46.2021 137.036 46.0114L133.437 43.8603C132.895 43.5608 133.166 43.4519 133.328 43.3974C134.059 43.1523 134.194 43.0978 134.952 42.6622C135.033 42.6078 135.141 42.635 135.222 42.6895L137.983 44.3505C138.091 44.4049 138.226 44.4049 138.307 44.3505L149.105 38.0604C149.213 38.006 149.268 37.8971 149.268 37.761V25.2082C149.268 25.0721 149.213 24.9632 149.105 24.9087L138.307 18.646C138.199 18.5915 138.064 18.5915 137.983 18.646L127.185 24.9087C127.077 24.9632 127.023 25.0993 127.023 25.2082V37.761C127.023 37.8699 127.077 38.006 127.185 38.0604L130.135 39.7759C131.731 40.5928 132.733 39.6398 132.733 38.6867V26.2974C132.733 26.1341 132.868 25.9707 133.058 25.9707H134.438C134.6 25.9707 134.763 26.1068 134.763 26.2974V38.6867C134.763 40.8379 133.599 42.0904 131.569 42.0904C130.947 42.0904 130.46 42.0904 129.079 41.4097L126.238 39.7759C125.535 39.3674 125.102 38.6051 125.102 37.7881V25.2355C125.102 24.4185 125.535 23.6562 126.238 23.2477L137.036 16.9578C137.712 16.5766 138.632 16.5766 139.309 16.9578L150.106 23.2477C150.81 23.6562 151.242 24.4185 151.242 25.2355V37.7881C151.242 38.6051 150.81 39.3674 150.106 39.7759L139.309 46.0658C138.984 46.2021 138.578 46.311 138.173 46.311Z" fill="#5FA04E"/>
<path d="M141.531 37.6758C136.795 37.6758 135.82 35.4975 135.82 33.6459C135.82 33.4825 135.956 33.3191 136.145 33.3191H137.552C137.715 33.3191 137.85 33.4281 137.85 33.5914C138.067 35.0345 138.689 35.7426 141.558 35.7426C143.831 35.7426 144.805 35.2252 144.805 33.9999C144.805 33.292 144.534 32.7746 140.989 32.4206C138.039 32.121 136.199 31.4675 136.199 29.0985C136.199 26.893 138.039 25.5859 141.124 25.5859C144.589 25.5859 146.293 26.7841 146.51 29.3981C146.51 29.4798 146.483 29.5614 146.429 29.6432C146.374 29.6976 146.293 29.7521 146.211 29.7521H144.777C144.643 29.7521 144.507 29.6432 144.48 29.507C144.155 28.0094 143.316 27.5193 141.097 27.5193C138.608 27.5193 138.31 28.3906 138.31 29.0441C138.31 29.8337 138.662 30.0788 142.017 30.5145C145.346 30.9501 146.916 31.5764 146.916 33.9181C146.916 36.3143 144.94 37.6758 141.531 37.6758Z" fill="#5FA04E"/>
<path d="M157.114 24.495C157.114 25.6387 156.166 26.5917 155.029 26.5917C153.893 26.5917 152.945 25.6659 152.945 24.495C152.945 23.297 153.92 22.3984 155.029 22.3984C156.139 22.3984 157.114 23.3242 157.114 24.495ZM153.27 24.495C153.27 25.4753 154.055 26.265 155.002 26.265C155.977 26.265 156.762 25.4481 156.762 24.495C156.762 23.5148 155.977 22.7524 155.002 22.7524C154.083 22.7524 153.27 23.5148 153.27 24.495ZM154.245 23.3241H155.057C155.327 23.3241 155.869 23.3241 155.869 23.9504C155.869 24.3861 155.597 24.4678 155.434 24.5223C155.76 24.5495 155.787 24.7674 155.814 25.0669C155.841 25.2575 155.869 25.5842 155.922 25.6931H155.434C155.434 25.5842 155.354 24.9852 155.354 24.958C155.327 24.8219 155.273 24.7674 155.111 24.7674H154.705V25.7203H154.245V23.3241ZM154.678 24.3589H155.029C155.327 24.3589 155.381 24.1411 155.381 24.0322C155.381 23.7055 155.164 23.7055 155.029 23.7055H154.651V24.3589H154.678Z" fill="#5FA04E"/>
<path fill-rule="evenodd" clip-rule="evenodd" d="M25.6808 24.6691C25.6808 24.179 25.4102 23.7162 24.9773 23.4711L13.5305 16.7999C13.3411 16.691 13.1246 16.6365 12.908 16.6094C12.881 16.6094 12.7999 16.6094 12.7999 16.6094C12.5833 16.6094 12.3668 16.691 12.1774 16.7999L0.703583 23.4438C0.27061 23.689 0 24.1519 0 24.6691L0.027061 42.5316C0.027061 42.7767 0.162366 43.0217 0.378854 43.1306C0.595342 43.2669 0.865952 43.2669 1.05538 43.1306L7.87476 39.2096C8.30771 38.9646 8.57832 38.5017 8.57832 38.0116V29.6521C8.57832 29.162 8.84892 28.6991 9.28193 28.4541L12.1774 26.7659C12.3939 26.6296 12.6374 26.5752 12.881 26.5752C13.1246 26.5752 13.3681 26.6296 13.5576 26.7659L16.453 28.4541C16.886 28.6991 17.1567 29.162 17.1567 29.6521V38.0116C17.1567 38.5017 17.4273 38.9646 17.8602 39.2096L24.6255 43.1306C24.8419 43.2669 25.1125 43.2669 25.329 43.1306C25.5456 43.0217 25.6808 42.7767 25.6808 42.5316V24.6691Z" fill="white"/>
<path fill-rule="evenodd" clip-rule="evenodd" d="M80.8334 0.0816882C80.6164 -0.0272294 80.3459 -0.0272294 80.1566 0.0816882C79.9402 0.217834 79.805 0.435669 79.805 0.680733V18.3798C79.805 18.5431 79.7238 18.7065 79.5609 18.8155C79.3986 18.8972 79.2363 18.8972 79.0741 18.8155L76.2057 17.1545C75.7729 16.9095 75.2584 16.9095 74.8256 17.1545L63.3517 23.8257C62.9189 24.0708 62.6484 24.5336 62.6484 25.0237V38.3388C62.6484 38.8291 62.9189 39.2919 63.3517 39.537L74.8256 46.2082C75.2584 46.4532 75.7729 46.4532 76.2057 46.2082L87.6796 39.537C88.1124 39.2919 88.3829 38.8291 88.3829 38.3388V5.14635C88.3829 4.62898 88.1124 4.16609 87.6796 3.92102L80.8334 0.0816882ZM79.7779 33.955C79.7779 34.091 79.7238 34.1999 79.6156 34.2545L75.6912 36.5418C75.583 36.5963 75.4478 36.5963 75.3396 36.5418L71.4157 34.2545C71.3075 34.1999 71.2534 34.0639 71.2534 33.955V29.3805C71.2534 29.2443 71.3075 29.1354 71.4157 29.0809L75.3396 26.7937C75.4478 26.7392 75.583 26.7392 75.6912 26.7937L79.6156 29.0809C79.7238 29.1354 79.7779 29.2716 79.7779 29.3805V33.955Z" fill="white"/>
<path fill-rule="evenodd" clip-rule="evenodd" d="M119.013 29.2689C119.446 29.0237 119.689 28.561 119.689 28.0707V24.8304C119.689 24.3404 119.419 23.8774 119.013 23.6325L107.62 16.9885C107.187 16.7434 106.673 16.7434 106.24 16.9885L94.7664 23.6596C94.333 23.9047 94.0625 24.3677 94.0625 24.8578V38.1729C94.0625 38.663 94.333 39.126 94.7664 39.3709L106.159 45.9059C106.592 46.151 107.106 46.151 107.512 45.9059L114.413 42.0395C114.629 41.9306 114.764 41.6855 114.764 41.4403C114.764 41.1954 114.629 40.9503 114.413 40.8413L102.884 34.1701C102.668 34.034 102.533 33.8162 102.533 33.5711V29.4051C102.533 29.16 102.668 28.9148 102.884 28.8059L106.484 26.7365C106.7 26.6005 106.971 26.6005 107.187 26.7365L110.786 28.8059C111.003 28.9422 111.138 29.16 111.138 29.4051V32.6726C111.138 32.9176 111.273 33.1626 111.49 33.2716C111.706 33.4077 111.977 33.4077 112.193 33.2716L119.013 29.2689Z" fill="white"/>
<path fill-rule="evenodd" clip-rule="evenodd" d="M106.756 28.6424C106.838 28.5879 106.946 28.5879 107.028 28.6424L109.219 29.9222C109.3 29.9766 109.354 30.0584 109.354 30.1673V32.7268C109.354 32.8358 109.3 32.9175 109.219 32.9719L107.028 34.2517C106.946 34.3061 106.838 34.3061 106.756 34.2517L104.565 32.9719C104.484 32.9175 104.43 32.8358 104.43 32.7268V30.1673C104.43 30.0584 104.484 29.9766 104.565 29.9222L106.756 28.6424Z" fill="#5FA04E"/>
<path d="M44.8634 17.0431C44.4304 16.7981 43.9162 16.7981 43.4832 17.0431L32.0906 23.6599C31.6576 23.905 31.4141 24.3678 31.4141 24.8581V38.1186C31.4141 38.6088 31.6847 39.0716 32.0906 39.3168L43.4832 45.9335C43.9162 46.1785 44.4304 46.1785 44.8634 45.9335L56.256 39.3168C56.6891 39.0716 56.9325 38.6088 56.9325 38.1186V24.8581C56.9325 24.3678 56.662 23.905 56.256 23.6599L44.8634 17.0431Z" fill="url(#paint0_linear_494_112)"/>
<path d="M56.2894 23.6591L44.8427 17.0423C44.7345 16.9879 44.5992 16.9334 44.491 16.9062L31.6641 38.9892C31.7723 39.1253 31.9076 39.2342 32.0428 39.316L43.4897 45.9327C43.8145 46.1232 44.1932 46.1777 44.5449 46.0688L56.5871 23.9042C56.506 23.7953 56.3977 23.7136 56.2894 23.6591Z" fill="url(#paint1_linear_494_112)"/>
<path d="M56.2863 39.3211C56.6111 39.1305 56.8547 38.8038 56.9628 38.4497L44.4335 16.8842C44.1089 16.8297 43.757 16.8568 43.4594 17.0475L32.0938 23.637L44.3523 46.1285C44.5147 46.1012 44.7043 46.0467 44.8666 45.9651L56.2863 39.3211Z" fill="url(#paint2_linear_494_112)"/>
</g>
<defs>
<linearGradient id="paint0_linear_494_112" x1="48.8132" y1="21.9711" x2="38.409" y2="43.0642" gradientUnits="userSpaceOnUse">
<stop stop-color="#3F873F"/>
<stop offset="0.3296" stop-color="#3F8B3D"/>
<stop offset="0.6367" stop-color="#3E9638"/>
<stop offset="0.9341" stop-color="#3DA92E"/>
<stop offset="1" stop-color="#3DAE2B"/>
</linearGradient>
<linearGradient id="paint1_linear_494_112" x1="42.4483" y1="33.036" x2="71.4778" y2="11.7201" gradientUnits="userSpaceOnUse">
<stop offset="0.1376" stop-color="#3F873F"/>
<stop offset="0.4016" stop-color="#52A044"/>
<stop offset="0.7129" stop-color="#64B749"/>
<stop offset="0.9081" stop-color="#6ABF4B"/>
</linearGradient>
<linearGradient id="paint2_linear_494_112" x1="30.9996" y1="31.4884" x2="57.3616" y2="31.4884" gradientUnits="userSpaceOnUse">
<stop offset="0.0919165" stop-color="#6ABF4B"/>
<stop offset="0.2871" stop-color="#64B749"/>
<stop offset="0.5984" stop-color="#52A044"/>
<stop offset="0.8624" stop-color="#3F873F"/>
</linearGradient>
</defs>
</svg>
