<svg width="160" height="50" viewBox="0 0 160 50" fill="none" xmlns="http://www.w3.org/2000/svg">
<path fill-rule="evenodd" clip-rule="evenodd" d="M26 11L28.235 35.4789L38.0266 38.2461L47.8182 35.4789L50 11H26ZM45.5299 16.0022H38.0266H30.4701L30.7361 18.9823H38.0266H42.2838L41.9911 22.0687H38.0266H31.0022L31.2683 25.102H38.0266H41.6984L41.3259 28.9867L38.0266 29.8914L34.6208 28.9867L34.408 26.592H31.4279L31.8004 31.3282L38.0266 33.031L44.1463 31.3282L45.5299 16.0022Z" fill="#EBEBEB"/>
<path d="M90.331 23.2173H88.7372C88.6918 22.956 88.608 22.7244 88.4858 22.5227C88.3636 22.3182 88.2116 22.1449 88.0298 22.0028C87.848 21.8608 87.6406 21.7543 87.4077 21.6832C87.1776 21.6094 86.929 21.5724 86.6619 21.5724C86.1875 21.5724 85.767 21.6918 85.4006 21.9304C85.0341 22.1662 84.7472 22.5128 84.5398 22.9702C84.3324 23.4247 84.2287 23.9801 84.2287 24.6364C84.2287 25.304 84.3324 25.8665 84.5398 26.3239C84.75 26.7784 85.0369 27.1222 85.4006 27.3551C85.767 27.5852 86.1861 27.7003 86.6577 27.7003C86.919 27.7003 87.1634 27.6662 87.3906 27.598C87.6207 27.527 87.8267 27.4233 88.0085 27.2869C88.1932 27.1506 88.348 26.983 88.473 26.7841C88.6009 26.5852 88.6889 26.358 88.7372 26.1023L90.331 26.1108C90.2713 26.5256 90.142 26.9148 89.9432 27.2784C89.7472 27.642 89.4901 27.9631 89.1719 28.2415C88.8537 28.517 88.4815 28.733 88.0554 28.8892C87.6293 29.0426 87.1563 29.1193 86.6364 29.1193C85.8693 29.1193 85.1847 28.9418 84.5824 28.5866C83.9801 28.2315 83.5057 27.7188 83.1591 27.0483C82.8125 26.3778 82.6392 25.5739 82.6392 24.6364C82.6392 23.696 82.8139 22.892 83.1634 22.2244C83.5128 21.554 83.9886 21.0412 84.5909 20.6861C85.1932 20.331 85.875 20.1534 86.6364 20.1534C87.1222 20.1534 87.5739 20.2216 87.9915 20.358C88.4091 20.4943 88.7813 20.6946 89.108 20.9588C89.4347 21.2202 89.7031 21.5412 89.9134 21.9219C90.1264 22.2997 90.2656 22.7315 90.331 23.2173ZM96.5217 22.6719C96.4819 22.2997 96.3143 22.0099 96.0188 21.8026C95.7262 21.5952 95.3455 21.4915 94.8768 21.4915C94.5472 21.4915 94.2646 21.5412 94.0288 21.6406C93.793 21.7401 93.6126 21.875 93.4876 22.0455C93.3626 22.2159 93.2987 22.4105 93.2958 22.6293C93.2958 22.8111 93.337 22.9687 93.4194 23.1023C93.5046 23.2358 93.6197 23.3494 93.7646 23.4432C93.9094 23.5341 94.07 23.6108 94.2461 23.6733C94.4222 23.7358 94.5998 23.7884 94.7788 23.831L95.5969 24.0355C95.9265 24.1122 96.2433 24.2159 96.5472 24.3466C96.854 24.4773 97.1282 24.642 97.3697 24.8409C97.614 25.0398 97.8072 25.2798 97.9492 25.5611C98.0913 25.8423 98.1623 26.1719 98.1623 26.5497C98.1623 27.0611 98.0316 27.5114 97.7702 27.9006C97.5089 28.2869 97.131 28.5895 96.6367 28.8082C96.1452 29.0241 95.5501 29.1321 94.8512 29.1321C94.1722 29.1321 93.5827 29.027 93.0827 28.8168C92.5856 28.6065 92.1964 28.2997 91.9151 27.8963C91.6367 27.4929 91.4862 27.0014 91.4634 26.4219H93.0188C93.0415 26.7259 93.1353 26.9787 93.3001 27.1804C93.4648 27.3821 93.6793 27.5327 93.9435 27.6321C94.2106 27.7315 94.5089 27.7812 94.8384 27.7812C95.1822 27.7812 95.4833 27.7301 95.7418 27.6278C96.0032 27.5227 96.2077 27.3778 96.3555 27.1932C96.5032 27.0057 96.5785 26.7869 96.5813 26.5369C96.5785 26.3097 96.5117 26.1222 96.381 25.9744C96.2504 25.8239 96.0671 25.6989 95.8313 25.5994C95.5984 25.4972 95.3256 25.4062 95.0131 25.3267L94.0202 25.071C93.3015 24.8864 92.7333 24.6065 92.3157 24.2315C91.9009 23.8537 91.6935 23.3523 91.6935 22.7273C91.6935 22.2131 91.8327 21.7628 92.1112 21.3764C92.3924 20.9901 92.7745 20.6903 93.2575 20.4773C93.7404 20.2614 94.2873 20.1534 94.8981 20.1534C95.5174 20.1534 96.06 20.2614 96.5259 20.4773C96.9947 20.6903 97.3626 20.9872 97.6296 21.3679C97.8967 21.7457 98.0344 22.1804 98.043 22.6719H96.5217ZM104.315 22.6719C104.275 22.2997 104.107 22.0099 103.812 21.8026C103.519 21.5952 103.138 21.4915 102.67 21.4915C102.34 21.4915 102.058 21.5412 101.822 21.6406C101.586 21.7401 101.406 21.875 101.281 22.0455C101.156 22.2159 101.092 22.4105 101.089 22.6293C101.089 22.8111 101.13 22.9687 101.212 23.1023C101.298 23.2358 101.413 23.3494 101.558 23.4432C101.702 23.5341 101.863 23.6108 102.039 23.6733C102.215 23.7358 102.393 23.7884 102.572 23.831L103.39 24.0355C103.719 24.1122 104.036 24.2159 104.34 24.3466C104.647 24.4773 104.921 24.642 105.163 24.8409C105.407 25.0398 105.6 25.2798 105.742 25.5611C105.884 25.8423 105.955 26.1719 105.955 26.5497C105.955 27.0611 105.825 27.5114 105.563 27.9006C105.302 28.2869 104.924 28.5895 104.43 28.8082C103.938 29.0241 103.343 29.1321 102.644 29.1321C101.965 29.1321 101.376 29.027 100.876 28.8168C100.379 28.6065 99.9893 28.2997 99.7081 27.8963C99.4297 27.4929 99.2791 27.0014 99.2564 26.4219H100.812C100.835 26.7259 100.928 26.9787 101.093 27.1804C101.258 27.3821 101.472 27.5327 101.737 27.6321C102.004 27.7315 102.302 27.7812 102.631 27.7812C102.975 27.7812 103.276 27.7301 103.535 27.6278C103.796 27.5227 104.001 27.3778 104.148 27.1932C104.296 27.0057 104.371 26.7869 104.374 26.5369C104.371 26.3097 104.305 26.1222 104.174 25.9744C104.043 25.8239 103.86 25.6989 103.624 25.5994C103.391 25.4972 103.119 25.4062 102.806 25.3267L101.813 25.071C101.094 24.8864 100.526 24.6065 100.109 24.2315C99.6939 23.8537 99.4865 23.3523 99.4865 22.7273C99.4865 22.2131 99.6257 21.7628 99.9041 21.3764C100.185 20.9901 100.567 20.6903 101.05 20.4773C101.533 20.2614 102.08 20.1534 102.691 20.1534C103.31 20.1534 103.853 20.2614 104.319 20.4773C104.788 20.6903 105.156 20.9872 105.423 21.3679C105.69 21.7457 105.827 22.1804 105.836 22.6719H104.315ZM110.412 29.1193C109.798 29.1193 109.252 29.0142 108.775 28.804C108.301 28.5937 107.926 28.3011 107.65 27.9261C107.375 27.5511 107.228 27.1179 107.211 26.6264H108.814C108.828 26.8622 108.906 27.0682 109.048 27.2443C109.19 27.4176 109.379 27.5526 109.615 27.6491C109.85 27.7457 110.115 27.794 110.407 27.794C110.72 27.794 110.997 27.7401 111.238 27.6321C111.48 27.5213 111.669 27.3679 111.805 27.1719C111.941 26.9759 112.008 26.75 112.005 26.4943C112.008 26.2301 111.94 25.9972 111.801 25.7955C111.662 25.5937 111.46 25.4361 111.196 25.3224C110.934 25.2088 110.619 25.152 110.25 25.152H109.478V23.9332H110.25C110.554 23.9332 110.819 23.8807 111.047 23.7756C111.277 23.6705 111.457 23.5227 111.588 23.3324C111.718 23.1392 111.782 22.9162 111.779 22.6634C111.782 22.4162 111.727 22.2017 111.613 22.0199C111.502 21.8352 111.345 21.6918 111.14 21.5895C110.939 21.4872 110.701 21.4361 110.429 21.4361C110.162 21.4361 109.914 21.4844 109.687 21.581C109.46 21.6776 109.277 21.8153 109.137 21.9943C108.998 22.1705 108.924 22.3807 108.916 22.625H107.395C107.406 22.1364 107.547 21.7074 107.816 21.3381C108.089 20.9659 108.453 20.6761 108.907 20.4688C109.362 20.2585 109.872 20.1534 110.437 20.1534C111.02 20.1534 111.525 20.2628 111.954 20.4815C112.386 20.6974 112.72 20.9886 112.956 21.3551C113.191 21.7216 113.309 22.1264 113.309 22.5696C113.312 23.0611 113.167 23.473 112.875 23.8054C112.585 24.1378 112.204 24.3551 111.733 24.4574V24.5256C112.346 24.6108 112.816 24.8381 113.143 25.2074C113.473 25.5739 113.636 26.0298 113.633 26.5753C113.633 27.0639 113.494 27.5014 113.216 27.8878C112.94 28.2713 112.559 28.5724 112.074 28.7912C111.591 29.0099 111.037 29.1193 110.412 29.1193Z" fill="white"/>
</svg>
