<svg width="160" height="50" viewBox="0 0 160 50" fill="none" xmlns="http://www.w3.org/2000/svg">
<path d="M50.5046 22.6091C49.9642 22.2341 48.7257 22.0935 47.7574 22.281C47.6448 21.3435 47.1269 20.5233 46.2262 19.7967L45.7082 19.4217L45.3479 19.9608C44.8976 20.6639 44.6724 21.6482 44.74 22.5857C44.7625 22.9138 44.8751 23.4997 45.2128 24.0153C44.8976 24.2028 44.2446 24.4372 43.3889 24.4372H27.1083L27.0632 24.6247C26.9056 25.5621 26.9056 28.4917 28.7521 30.7416C30.1482 32.4525 32.2199 33.3196 34.9446 33.3196C40.8443 33.3196 45.2128 30.4838 47.262 25.3512C48.0726 25.3746 49.8065 25.3512 50.6847 23.5934C50.7073 23.5466 50.7523 23.4528 50.9099 23.1013L51 22.9138L50.5046 22.6091ZM40.1237 16H37.6467V18.3437H40.1237V16ZM40.1237 18.8124H37.6467V21.156H40.1237V18.8124ZM37.1964 18.8124H34.7194V21.156H37.1964V18.8124ZM34.269 18.8124H31.792V21.156H34.269V18.8124ZM31.3417 21.6248H28.8647V23.9684H31.3417V21.6248ZM34.269 21.6248H31.792V23.9684H34.269V21.6248ZM37.1964 21.6248H34.7194V23.9684H37.1964V21.6248ZM40.1237 21.6248H37.6467V23.9684H40.1237V21.6248ZM43.0511 21.6248H40.5741V23.9684H43.0511V21.6248Z" fill="white"/>
<path d="M74.8182 29H71.8608V20.2727H74.8778C75.7443 20.2727 76.4886 20.4474 77.1108 20.7969C77.7358 21.1435 78.2159 21.642 78.5511 22.2926C78.8864 22.9432 79.054 23.7216 79.054 24.6278C79.054 25.5369 78.8849 26.3182 78.5469 26.9716C78.2116 27.625 77.7273 28.1264 77.0938 28.4759C76.4631 28.8253 75.7045 29 74.8182 29ZM73.4418 27.6321H74.7415C75.3494 27.6321 75.8565 27.5213 76.2628 27.2997C76.669 27.0753 76.9744 26.7415 77.179 26.2983C77.3835 25.8523 77.4858 25.2955 77.4858 24.6278C77.4858 23.9602 77.3835 23.4062 77.179 22.9659C76.9744 22.5227 76.6719 22.1918 76.2713 21.973C75.8736 21.7514 75.3793 21.6406 74.7884 21.6406H73.4418V27.6321ZM88.3544 24.6364C88.3544 25.5767 88.1783 26.3821 87.826 27.0526C87.4766 27.7202 86.9993 28.2315 86.3942 28.5866C85.7919 28.9418 85.1087 29.1193 84.3445 29.1193C83.5803 29.1193 82.8956 28.9418 82.2905 28.5866C81.6882 28.2287 81.2109 27.7159 80.8587 27.0483C80.5092 26.3778 80.3345 25.5739 80.3345 24.6364C80.3345 23.696 80.5092 22.892 80.8587 22.2244C81.2109 21.554 81.6882 21.0412 82.2905 20.6861C82.8956 20.331 83.5803 20.1534 84.3445 20.1534C85.1087 20.1534 85.7919 20.331 86.3942 20.6861C86.9993 21.0412 87.4766 21.554 87.826 22.2244C88.1783 22.892 88.3544 23.696 88.3544 24.6364ZM86.7649 24.6364C86.7649 23.9744 86.6612 23.4162 86.4538 22.9616C86.2493 22.5043 85.9652 22.1591 85.6016 21.9261C85.2379 21.6903 84.8189 21.5724 84.3445 21.5724C83.87 21.5724 83.451 21.6903 83.0874 21.9261C82.7237 22.1591 82.4382 22.5043 82.2308 22.9616C82.0263 23.4162 81.924 23.9744 81.924 24.6364C81.924 25.2983 82.0263 25.858 82.2308 26.3153C82.4382 26.7699 82.7237 27.1151 83.0874 27.3509C83.451 27.5838 83.87 27.7003 84.3445 27.7003C84.8189 27.7003 85.2379 27.5838 85.6016 27.3509C85.9652 27.1151 86.2493 26.7699 86.4538 26.3153C86.6612 25.858 86.7649 25.2983 86.7649 24.6364ZM97.3192 23.2173H95.7255C95.68 22.956 95.5962 22.7244 95.4741 22.5227C95.3519 22.3182 95.1999 22.1449 95.0181 22.0028C94.8363 21.8608 94.6289 21.7543 94.396 21.6832C94.1658 21.6094 93.9173 21.5724 93.6502 21.5724C93.1758 21.5724 92.7553 21.6918 92.3888 21.9304C92.0224 22.1662 91.7354 22.5128 91.5281 22.9702C91.3207 23.4247 91.217 23.9801 91.217 24.6364C91.217 25.304 91.3207 25.8665 91.5281 26.3239C91.7383 26.7784 92.0252 27.1222 92.3888 27.3551C92.7553 27.5852 93.1744 27.7003 93.646 27.7003C93.9073 27.7003 94.1516 27.6662 94.3789 27.598C94.609 27.527 94.815 27.4233 94.9968 27.2869C95.1815 27.1506 95.3363 26.983 95.4613 26.7841C95.5891 26.5852 95.6772 26.358 95.7255 26.1023L97.3192 26.1108C97.2596 26.5256 97.1303 26.9148 96.9315 27.2784C96.7354 27.642 96.4783 27.9631 96.1602 28.2415C95.842 28.517 95.4698 28.733 95.0437 28.8892C94.6175 29.0426 94.1445 29.1193 93.6246 29.1193C92.8576 29.1193 92.1729 28.9418 91.5707 28.5866C90.9684 28.2315 90.494 27.7188 90.1474 27.0483C89.8008 26.3778 89.6275 25.5739 89.6275 24.6364C89.6275 23.696 89.8022 22.892 90.1516 22.2244C90.5011 21.554 90.9769 21.0412 91.5792 20.6861C92.1815 20.331 92.8633 20.1534 93.6246 20.1534C94.1104 20.1534 94.5621 20.2216 94.9798 20.358C95.3974 20.4943 95.7695 20.6946 96.0962 20.9588C96.4229 21.2202 96.6914 21.5412 96.9016 21.9219C97.1147 22.2997 97.2539 22.7315 97.3192 23.2173ZM98.767 29V20.2727H100.348V24.2827H100.455L103.859 20.2727H105.79L102.415 24.1889L105.82 29H103.919L101.315 25.2585L100.348 26.4006V29H98.767ZM106.888 29V20.2727H112.564V21.598H108.469V23.9673H112.27V25.2926H108.469V27.6747H112.598V29H106.888ZM114.177 29V20.2727H117.45C118.12 20.2727 118.683 20.3892 119.137 20.6222C119.595 20.8551 119.94 21.1818 120.173 21.6023C120.409 22.0199 120.527 22.5071 120.527 23.0639C120.527 23.6236 120.407 24.1094 120.169 24.5213C119.933 24.9304 119.585 25.2472 119.125 25.4716C118.664 25.6932 118.099 25.804 117.429 25.804H115.098V24.4915H117.216C117.608 24.4915 117.929 24.4375 118.179 24.3295C118.429 24.2187 118.613 24.0582 118.733 23.848C118.855 23.6349 118.916 23.3736 118.916 23.0639C118.916 22.7543 118.855 22.4901 118.733 22.2713C118.61 22.0497 118.424 21.8821 118.174 21.7685C117.924 21.652 117.602 21.5938 117.207 21.5938H115.758V29H114.177ZM118.686 25.0455L120.846 29H119.082L116.96 25.0455H118.686Z" fill="white"/>
</svg>
