<svg width="160" height="50" viewBox="0 0 160 50" fill="none" xmlns="http://www.w3.org/2000/svg">
<path d="M72.7074 23.0597C72.6364 22.8295 72.5384 22.6236 72.4134 22.4418C72.2912 22.2571 72.1435 22.0994 71.9702 21.9688C71.7997 21.8381 71.6037 21.7401 71.3821 21.6747C71.1605 21.6065 70.919 21.5724 70.6577 21.5724C70.1889 21.5724 69.7713 21.6903 69.4048 21.9261C69.0384 22.1619 68.75 22.5085 68.5398 22.9659C68.3324 23.4205 68.2287 23.9744 68.2287 24.6278C68.2287 25.2869 68.3324 25.8452 68.5398 26.3026C68.7472 26.7599 69.0355 27.108 69.4048 27.3466C69.7741 27.5824 70.2031 27.7003 70.6918 27.7003C71.1349 27.7003 71.5185 27.6151 71.8423 27.4446C72.169 27.2741 72.4205 27.0327 72.5966 26.7202C72.7727 26.4048 72.8608 26.0355 72.8608 25.6122L73.2188 25.6676H70.8494V24.4318H74.3906V25.4801C74.3906 26.2273 74.2315 26.8736 73.9134 27.419C73.5952 27.9645 73.1577 28.3849 72.6009 28.6804C72.044 28.973 71.4048 29.1193 70.6832 29.1193C69.8793 29.1193 69.1733 28.9389 68.5653 28.5781C67.9602 28.2145 67.4872 27.6989 67.1463 27.0312C66.8082 26.3608 66.6392 25.5653 66.6392 24.6449C66.6392 23.9403 66.7386 23.3111 66.9375 22.7571C67.1392 22.2031 67.4205 21.733 67.7812 21.3466C68.142 20.9574 68.5653 20.6619 69.0511 20.4602C69.5369 20.2557 70.0653 20.1534 70.6364 20.1534C71.1193 20.1534 71.5696 20.2244 71.9872 20.3665C72.4048 20.5057 72.7756 20.7045 73.0994 20.9631C73.4261 21.2216 73.6946 21.5284 73.9048 21.8835C74.1151 22.2386 74.2528 22.6307 74.3182 23.0597H72.7074ZM75.9194 29V20.2727H79.1921C79.8626 20.2727 80.4251 20.3892 80.8796 20.6222C81.337 20.8551 81.6822 21.1818 81.9151 21.6023C82.1509 22.0199 82.2688 22.5071 82.2688 23.0639C82.2688 23.6236 82.1495 24.1094 81.9109 24.5213C81.6751 24.9304 81.3271 25.2472 80.8668 25.4716C80.4066 25.6932 79.8413 25.804 79.1708 25.804H76.8398V24.4915H78.9577C79.3498 24.4915 79.6708 24.4375 79.9208 24.3295C80.1708 24.2187 80.3555 24.0582 80.4748 23.848C80.5969 23.6349 80.658 23.3736 80.658 23.0639C80.658 22.7543 80.5969 22.4901 80.4748 22.2713C80.3526 22.0497 80.1665 21.8821 79.9165 21.7685C79.6665 21.652 79.3441 21.5938 78.9492 21.5938H77.5004V29H75.9194ZM80.4279 25.0455L82.5884 29H80.8242L78.7021 25.0455H80.4279ZM84.8448 29H83.1573L86.2298 20.2727H88.1815L91.2582 29H89.5707L87.2397 22.0625H87.1715L84.8448 29ZM84.9002 25.5781H89.5025V26.848H84.9002V25.5781ZM92.4077 29V20.2727H95.6804C96.3509 20.2727 96.9134 20.3977 97.3679 20.6477C97.8253 20.8977 98.1705 21.2415 98.4034 21.679C98.6392 22.1136 98.7571 22.608 98.7571 23.1619C98.7571 23.7216 98.6392 24.2187 98.4034 24.6534C98.1676 25.0881 97.8196 25.4304 97.3594 25.6804C96.8991 25.9276 96.3324 26.0511 95.6591 26.0511H93.4901V24.7514H95.446C95.8381 24.7514 96.1591 24.6832 96.4091 24.5469C96.6591 24.4105 96.8438 24.223 96.9631 23.9844C97.0852 23.7457 97.1463 23.4716 97.1463 23.1619C97.1463 22.8523 97.0852 22.5795 96.9631 22.3438C96.8438 22.108 96.6577 21.9247 96.4048 21.794C96.1548 21.6605 95.8324 21.5938 95.4375 21.5938H93.9886V29H92.4077ZM100.13 29V20.2727H101.711V23.9673H105.755V20.2727H107.341V29H105.755V25.2926H101.711V29H100.13ZM112.311 26.0682H113.743L114.591 27.1676L115.196 27.8835L116.65 29.75H115.115L114.127 28.4972L113.705 27.9006L112.311 26.0682ZM116.858 24.6364C116.858 25.5767 116.682 26.3821 116.33 27.0526C115.98 27.7202 115.503 28.2315 114.898 28.5866C114.296 28.9418 113.613 29.1193 112.848 29.1193C112.084 29.1193 111.4 28.9418 110.794 28.5866C110.192 28.2287 109.715 27.7159 109.363 27.0483C109.013 26.3778 108.838 25.5739 108.838 24.6364C108.838 23.696 109.013 22.892 109.363 22.2244C109.715 21.554 110.192 21.0412 110.794 20.6861C111.4 20.331 112.084 20.1534 112.848 20.1534C113.613 20.1534 114.296 20.331 114.898 20.6861C115.503 21.0412 115.98 21.554 116.33 22.2244C116.682 22.892 116.858 23.696 116.858 24.6364ZM115.269 24.6364C115.269 23.9744 115.165 23.4162 114.958 22.9616C114.753 22.5043 114.469 22.1591 114.105 21.9261C113.742 21.6903 113.323 21.5724 112.848 21.5724C112.374 21.5724 111.955 21.6903 111.591 21.9261C111.228 22.1591 110.942 22.5043 110.735 22.9616C110.53 23.4162 110.428 23.9744 110.428 24.6364C110.428 25.2983 110.53 25.858 110.735 26.3153C110.942 26.7699 111.228 27.1151 111.591 27.3509C111.955 27.5838 112.374 27.7003 112.848 27.7003C113.323 27.7003 113.742 27.5838 114.105 27.3509C114.469 27.1151 114.753 26.7699 114.958 26.3153C115.165 25.858 115.269 25.2983 115.269 24.6364ZM118.365 29V20.2727H119.946V27.6747H123.789V29H118.365Z" fill="white"/>
<g clip-path="url(#clip0_496_203)">
<path fill-rule="evenodd" clip-rule="evenodd" d="M41.304 14.0903L46.8489 17.2918C47.0051 17.1264 47.1875 16.9804 47.3944 16.8602C48.5444 16.1991 50.0111 16.5916 50.6791 17.7416C51.3402 18.8917 50.9477 20.3584 49.7977 21.0264C49.5923 21.1444 49.3767 21.2289 49.1572 21.2814V27.6868C49.3743 27.7395 49.5876 27.8234 49.7908 27.9402C50.9477 28.6082 51.3402 30.0749 50.6722 31.2249C50.0111 32.3749 48.5375 32.7675 47.3875 32.1064C47.1585 31.9748 46.9596 31.8109 46.793 31.6239L41.2819 34.8058C41.3607 35.0439 41.4033 35.2985 41.4033 35.5633C41.4033 36.8854 40.329 37.9666 39 37.9666C37.671 37.9666 36.5967 36.8923 36.5967 35.5633C36.5967 35.327 36.6306 35.0989 36.6939 34.8833L31.1505 31.6827C30.996 31.8448 30.8161 31.9881 30.6125 32.1064C29.4556 32.7675 27.9889 32.3749 27.3278 31.2249C26.6667 30.0749 27.0592 28.6082 28.2092 27.9402C28.4126 27.8233 28.6258 27.7394 28.8428 27.6867V21.2814C28.6233 21.2289 28.4077 21.1444 28.2023 21.0264C27.0523 20.3653 26.6598 18.8917 27.3209 17.7416C27.982 16.5916 29.4556 16.1991 30.6056 16.8602C30.8114 16.9797 30.9929 17.1248 31.1485 17.2891L36.6949 14.0868C36.631 13.8702 36.5967 13.6408 36.5967 13.4033C36.5967 12.0743 37.671 11 39 11C40.329 11 41.4033 12.0743 41.4033 13.4033C41.4033 13.6421 41.3686 13.8727 41.304 14.0903ZM40.7263 15.0767L46.2844 18.2858C46.1126 18.8892 46.1757 19.5583 46.5129 20.145C46.8512 20.7335 47.4024 21.1237 48.0141 21.2757V27.6892C47.9829 27.6968 47.9519 27.7051 47.9211 27.714L40.6617 15.1408C40.6837 15.1198 40.7052 15.0985 40.7263 15.0767ZM37.3398 15.1423L30.0806 27.7152C30.0492 27.7061 30.0176 27.6976 29.9859 27.6898V21.2757C30.5976 21.1237 31.1488 20.7335 31.4871 20.145C31.825 19.5571 31.8876 18.8866 31.7146 18.2822L37.2711 15.074C37.2936 15.0972 37.3164 15.12 37.3398 15.1423ZM39.6715 15.7119L46.9291 28.282C46.7666 28.4368 46.6235 28.6173 46.506 28.8216C46.3892 29.0248 46.3053 29.2381 46.2527 29.4552H31.7475C31.6948 29.2382 31.6109 29.025 31.494 28.8216C31.376 28.6186 31.2332 28.4391 31.0716 28.2849L38.3305 15.7124C38.543 15.7738 38.7676 15.8066 39 15.8066C39.2332 15.8066 39.4585 15.7735 39.6715 15.7119ZM40.7773 33.9442L46.2994 30.7559C46.2828 30.7039 46.268 30.6513 46.255 30.5983H31.7444C31.7367 30.6294 31.7284 30.6605 31.7194 30.6913L37.2686 33.8952C37.7055 33.4417 38.3194 33.16 39 33.16C39.7048 33.16 40.338 33.4621 40.7773 33.9442Z" fill="white"/>
</g>
<defs>
<clipPath id="clip0_496_203">
<rect width="24" height="27" fill="white" transform="translate(27 11)"/>
</clipPath>
</defs>
</svg>
