<svg width="160" height="50" viewBox="0 0 160 50" fill="none" xmlns="http://www.w3.org/2000/svg">
<path d="M77.8608 29V20.2727H79.4418V23.9673H83.4858V20.2727H85.071V29H83.4858V25.2926H79.4418V29H77.8608ZM86.407 21.598V20.2727H93.37V21.598H90.6726V29H89.1044V21.598H86.407ZM94.7124 20.2727H96.647L99.2379 26.5966H99.3402L101.931 20.2727H103.866V29H102.349V23.0043H102.268L99.8558 28.9744H98.7223L96.3104 22.9915H96.2294V29H94.7124V20.2727ZM105.587 29V20.2727H107.168V27.6747H111.012V29H105.587ZM115.333 29.1193C114.765 29.1193 114.256 29.0128 113.808 28.7997C113.359 28.5838 113.002 28.2884 112.738 27.9134C112.477 27.5384 112.337 27.1094 112.32 26.6264H113.854C113.883 26.9844 114.038 27.277 114.319 27.5043C114.6 27.7287 114.938 27.8409 115.333 27.8409C115.643 27.8409 115.918 27.7699 116.16 27.6278C116.401 27.4858 116.592 27.2884 116.731 27.0355C116.87 26.7827 116.938 26.4943 116.935 26.1705C116.938 25.8409 116.869 25.5483 116.727 25.2926C116.585 25.0369 116.39 24.8366 116.143 24.6918C115.896 24.544 115.612 24.4702 115.29 24.4702C115.029 24.4673 114.772 24.5156 114.519 24.6151C114.266 24.7145 114.066 24.8452 113.918 25.0071L112.491 24.7727L112.947 20.2727H118.009V21.5938H114.255L114.004 23.9077H114.055C114.217 23.7173 114.445 23.5597 114.741 23.4347C115.036 23.3068 115.36 23.2429 115.712 23.2429C116.241 23.2429 116.712 23.3679 117.127 23.6179C117.542 23.8651 117.869 24.206 118.107 24.6406C118.346 25.0753 118.465 25.5724 118.465 26.1321C118.465 26.7088 118.332 27.223 118.065 27.6747C117.8 28.1236 117.433 28.4773 116.961 28.7358C116.492 28.9915 115.95 29.1193 115.333 29.1193Z" fill="white"/>
<path fill-rule="evenodd" clip-rule="evenodd" d="M28.0096 35.607L26 11.0469L50 11.0962L47.875 35.607L38.0906 38.4402L28.0096 35.607ZM37.893 33.2513L38.0906 33.1966L44.1359 31.5218L44.9759 22.1986H38.0906H33.9562L33.6432 19.0524H38.0906H45.2561L45.536 16.0544H38.0906H30.3322L31.1722 25.246H38.0906H41.665L41.2535 29.1663L38.0906 30.0189L37.8932 30.0721L34.4834 29.0838L34.3023 26.7448H31.2875L31.6994 31.5218L37.893 33.2513Z" fill="white"/>
</svg>
