<svg width="157" height="49" viewBox="0 0 157 49" fill="none" xmlns="http://www.w3.org/2000/svg">
<path d="M66.5542 18.3933C66.5542 18.2641 66.6384 18.1791 66.765 18.1791H72.9522C75.5624 18.1791 76.9499 19.4218 76.9499 21.4373C76.9499 22.7668 76.0671 23.5811 75.141 23.8812C76.2353 24.2246 77.2031 25.2107 77.2031 26.7969C77.2031 28.8982 75.8139 30.2702 73.0364 30.2702H66.765C66.6384 30.2702 66.5542 30.1834 66.5542 30.0551V18.3933ZM68.7855 20.1512V23.1094H72.6999C74.0041 23.1094 74.6354 22.5951 74.6354 21.609C74.6354 20.5796 73.9625 20.1087 72.6999 20.1087H68.7846L68.7855 20.1512ZM68.7855 25.039V28.3831H72.7831C74.2573 28.3831 74.9303 27.7829 74.9303 26.711C74.9303 25.5966 74.2148 25.039 72.784 25.039H68.7855ZM79.9807 24.2671C79.9807 20.623 82.675 18.0074 86.2104 18.0074C89.7459 18.0074 92.4393 20.623 92.4393 24.2671C92.4393 27.8688 89.7459 30.5269 86.2104 30.5269C82.6325 30.5269 79.9807 27.9113 79.9807 24.2671ZM90.1665 24.2671C90.1665 21.9516 88.609 20.1078 86.2521 20.1078C83.8951 20.1078 82.3385 21.9949 82.3385 24.2671C82.3385 26.626 83.8951 28.4264 86.2521 28.4264C88.5674 28.4698 90.1665 26.5827 90.1665 24.2671ZM95.3019 24.2671C95.3019 20.623 97.9953 18.0074 101.531 18.0074C105.066 18.0074 107.761 20.623 107.761 24.2671C107.761 27.8688 105.066 30.5269 101.531 30.5269C97.9537 30.5269 95.3019 27.9113 95.3019 24.2671ZM105.488 24.2671C105.488 21.9516 103.93 20.1078 101.573 20.1078C99.2163 20.1078 97.6588 21.9949 97.6588 24.2671C97.6588 26.626 99.2163 28.4264 101.573 28.4264C103.888 28.4698 105.488 26.5827 105.488 24.2671ZM118.072 27.0544L121.608 18.3499C121.65 18.2641 121.692 18.2216 121.776 18.2216H124.68C124.807 18.2216 124.891 18.3074 124.891 18.4358V30.141C124.891 30.2702 124.807 30.356 124.68 30.356H122.87C122.744 30.356 122.66 30.2693 122.66 30.141V20.4079L118.703 30.2702C118.662 30.356 118.619 30.3985 118.535 30.3985H117.273C117.188 30.3985 117.104 30.3552 117.104 30.2702L113.19 20.4937V30.141C113.19 30.2702 113.106 30.356 112.979 30.356H111.296C111.169 30.356 111.085 30.2693 111.085 30.141V18.4358C111.085 18.3074 111.169 18.2216 111.296 18.2216H114.326C114.41 18.2216 114.494 18.2649 114.494 18.3499L118.072 27.0544ZM57.5053 24.3088C57.4968 24.2299 57.4723 24.1536 57.4334 24.0846C57.3944 24.0155 57.3418 23.955 57.2788 23.9069C57.2158 23.8588 57.1436 23.824 57.0667 23.8047C56.9898 23.7854 56.9098 23.7819 56.8315 23.7945L50.0129 24.738L57.0422 21.7365C57.3787 21.6082 57.5469 21.1789 57.4212 20.8363C57.2946 20.4929 56.874 20.3212 56.5367 20.4504L51.0648 22.8084L56.3693 18.6491C56.7058 18.3924 56.7474 17.9206 56.4951 17.5772C56.2427 17.2347 55.7796 17.1913 55.4432 17.4489L51.0232 20.9222L54.8535 15.7768C54.9812 15.5997 55.035 15.3799 55.0036 15.1639C54.9722 14.9479 54.858 14.7525 54.6853 14.619C54.5997 14.5548 54.5023 14.5083 54.3986 14.4822C54.2949 14.456 54.187 14.4508 54.0813 14.4668C53.9755 14.4828 53.874 14.5197 53.7827 14.5753C53.6914 14.6309 53.612 14.7042 53.5493 14.7908L50.3928 19.035L52.7489 13.3754C52.9171 12.947 52.7489 12.4752 52.3283 12.261C51.9077 12.0893 51.4438 12.261 51.2339 12.6894L46.6466 23.6228C46.2251 24.6097 45.2157 25.2957 44.0789 25.2957C42.9845 25.2957 42.1009 24.6522 41.6378 23.6653L36.7123 12.3044C36.6706 12.1743 36.5024 12.0893 36.3767 12.1743C36.2501 12.2177 36.1659 12.3894 36.2501 12.5177L40.6275 22.5517L34.5244 14.5332C34.3978 14.4048 34.1879 14.3615 34.0613 14.4898C33.9347 14.619 33.8931 14.8333 34.0197 14.9616L40.122 22.9801L32.8828 17.363C32.7987 17.3028 32.6943 17.2781 32.5921 17.2942C32.4899 17.3103 32.3981 17.3658 32.3365 17.4489C32.2769 17.535 32.2523 17.6406 32.2678 17.7442C32.2833 17.8477 32.3376 17.9415 32.4198 18.0065L39.9537 23.8803L31.9567 20.5787C31.7052 20.4929 31.452 20.5787 31.3254 20.8363C31.2413 21.093 31.3254 21.3506 31.5777 21.4789L39.9546 24.9522L31.8309 23.8803C31.5361 23.837 31.2838 24.052 31.2413 24.3521C31.2317 24.422 31.2361 24.4931 31.2542 24.5613C31.2724 24.6295 31.304 24.6934 31.3471 24.7492C31.3902 24.8051 31.444 24.8518 31.5053 24.8867C31.5666 24.9215 31.6343 24.9438 31.7043 24.9522L40.2486 26.0666L32.588 27.1386C32.2515 27.1819 32.0417 27.482 32.0833 27.8254C32.0918 27.9043 32.1163 27.9805 32.1552 28.0496C32.1942 28.1187 32.2468 28.1791 32.3098 28.2272C32.3728 28.2753 32.445 28.3101 32.5219 28.3295C32.5988 28.3488 32.6788 28.3523 32.7571 28.3397L40.7117 27.2244L34.1038 30.0551C33.7665 30.1834 33.5982 30.6119 33.7248 30.9553C33.8515 31.2979 34.2712 31.4696 34.6094 31.3412L41.6378 28.3397L36.3342 32.5415C35.9977 32.7991 35.9552 33.27 36.2084 33.6134C36.4599 33.9568 36.9238 33.9993 37.2603 33.7417L42.7738 29.4116L39.1126 34.2994C38.9849 34.4765 38.9311 34.6963 38.9625 34.9123C38.9939 35.1283 39.108 35.3237 39.2808 35.4572C39.3664 35.5214 39.4638 35.5679 39.5675 35.594C39.6712 35.6202 39.7791 35.6254 39.8848 35.6094C39.9905 35.5934 40.092 35.5565 40.1834 35.5009C40.2747 35.4453 40.3541 35.3721 40.4168 35.2854L43.8265 30.6977L41.9326 35.2421C41.7635 35.6714 41.9326 36.1431 42.3532 36.3574C42.7738 36.5291 43.2377 36.3574 43.4476 35.9289L44.9209 32.3698L46.5616 36.1856C46.6041 36.3149 46.7723 36.4007 46.8989 36.3149C47.0247 36.2715 47.1088 36.1006 47.0247 35.9714L45.1733 31.6838L45.7196 30.3977L49.4241 35.2854C49.5507 35.4138 49.7606 35.4572 49.8872 35.3288C50.0129 35.1996 50.0554 34.9854 49.9288 34.857L45.9728 29.6683L46.2676 28.8965L52.2017 33.5275C52.2859 33.588 52.3905 33.6128 52.4929 33.5968C52.5953 33.5807 52.6872 33.525 52.7489 33.4417C52.8081 33.3555 52.8324 33.2501 52.8168 33.1467C52.8012 33.0433 52.7468 32.9497 52.6648 32.8849L46.5616 28.1255L46.6882 27.8254L54.517 31.0836C54.7694 31.1695 55.0217 31.0836 55.1483 30.8261C55.2324 30.5694 55.1483 30.3118 54.896 30.1835L47.4036 27.0961L56.1161 28.2538C56.4109 28.2972 56.6633 28.0821 56.7058 27.7821C56.7154 27.7122 56.711 27.641 56.6928 27.5729C56.6746 27.5047 56.6431 27.4408 56.6 27.3849C56.5569 27.3291 56.5031 27.2824 56.4418 27.2475C56.3804 27.2127 56.3127 27.1904 56.2427 27.1819L48.8769 26.2384L56.9581 25.124C57.2946 24.9522 57.5478 24.6522 57.5053 24.3088Z" fill="#E1EBEC"/>
</svg>
