<svg width="160" height="50" viewBox="0 0 160 50" fill="none" xmlns="http://www.w3.org/2000/svg">
<path fill-rule="evenodd" clip-rule="evenodd" d="M28 13H52V37H28V13ZM35.3255 30.7082C35.6463 31.2453 35.9198 31.7031 36.7656 31.7031C37.5156 31.7031 37.8906 31.2344 37.8906 30.2969V22.5156H40.1406V30.2031C40.1094 32.4219 38.9844 33.5469 36.7656 33.5781C35.1094 33.5469 33.9844 32.8594 33.3906 31.5156L35.2188 30.5312C35.2554 30.5908 35.2907 30.65 35.3255 30.7082ZM45.2969 31.7031C44.4219 31.7031 43.7188 31.25 43.1875 30.3438L41.3125 31.4219C42.125 32.9531 43.5156 33.7188 45.4844 33.7188C47.8594 33.6562 49.0938 32.6094 49.1875 30.5781C49.1875 28.6562 48.0625 27.7656 46.0469 26.9688C44.6406 26.3594 44.2188 26.0781 44.2188 25.4219C44.25 24.7969 44.6094 24.4688 45.2969 24.4375C45.8906 24.4062 46.375 24.7344 46.75 25.4219L48.4844 24.2969C47.8594 23.0781 46.7969 22.4688 45.2969 22.4688C43.2812 22.4688 42.0156 23.7812 42.0156 25.4688C41.9844 27.125 43.0156 28.2969 45.1094 28.9844C46.2344 29.4531 46.9375 29.9219 46.9375 30.4375C46.9375 31.2812 46.3906 31.7031 45.2969 31.7031Z" fill="white"/>
<path d="M65.304 20.2727H66.8722V26.4091C66.8693 26.9716 66.75 27.456 66.5142 27.8622C66.2784 28.2656 65.9489 28.5767 65.5256 28.7955C65.1051 29.0114 64.6151 29.1193 64.0554 29.1193C63.544 29.1193 63.0838 29.0284 62.6747 28.8466C62.2685 28.6619 61.946 28.3892 61.7074 28.0284C61.4688 27.6676 61.3494 27.2187 61.3494 26.6818H62.9219C62.9247 26.9176 62.9759 27.1207 63.0753 27.2912C63.1776 27.4616 63.3182 27.5923 63.4972 27.6832C63.6761 27.7741 63.8821 27.8196 64.1151 27.8196C64.3679 27.8196 64.5824 27.767 64.7585 27.6619C64.9347 27.554 65.0682 27.3949 65.1591 27.1847C65.2528 26.9744 65.3011 26.7159 65.304 26.4091V20.2727ZM69.7081 29H68.0206L71.093 20.2727H73.0447L76.1214 29H74.4339L72.103 22.0625H72.0348L69.7081 29ZM69.7635 25.5781H74.3658V26.848H69.7635V25.5781ZM77.4425 20.2727L79.7138 27.142H79.8033L82.0703 20.2727H83.8089L80.7322 29H78.7805L75.7081 20.2727H77.4425ZM85.0597 29H83.3722L86.4446 20.2727H88.3963L91.473 29H89.7855L87.4545 22.0625H87.3864L85.0597 29ZM85.1151 25.5781H89.7173V26.848H85.1151V25.5781ZM97.2248 22.6719C97.185 22.2997 97.0174 22.0099 96.7219 21.8026C96.4293 21.5952 96.0487 21.4915 95.5799 21.4915C95.2504 21.4915 94.9677 21.5412 94.7319 21.6406C94.4961 21.7401 94.3157 21.875 94.1907 22.0455C94.0657 22.2159 94.0018 22.4105 93.9989 22.6293C93.9989 22.8111 94.0401 22.9687 94.1225 23.1023C94.2077 23.2358 94.3228 23.3494 94.4677 23.4432C94.6126 23.5341 94.7731 23.6108 94.9492 23.6733C95.1254 23.7358 95.3029 23.7884 95.4819 23.831L96.3001 24.0355C96.6296 24.1122 96.9464 24.2159 97.2504 24.3466C97.5572 24.4773 97.8313 24.642 98.0728 24.8409C98.3171 25.0398 98.5103 25.2798 98.6523 25.5611C98.7944 25.8423 98.8654 26.1719 98.8654 26.5497C98.8654 27.0611 98.7347 27.5114 98.4734 27.9006C98.212 28.2869 97.8342 28.5895 97.3398 28.8082C96.8484 29.0241 96.2532 29.1321 95.5543 29.1321C94.8754 29.1321 94.2859 29.027 93.7859 28.8168C93.2887 28.6065 92.8995 28.2997 92.6183 27.8963C92.3398 27.4929 92.1893 27.0014 92.1665 26.4219H93.7219C93.7447 26.7259 93.8384 26.9787 94.0032 27.1804C94.168 27.3821 94.3825 27.5327 94.6467 27.6321C94.9137 27.7315 95.212 27.7812 95.5415 27.7812C95.8853 27.7812 96.1864 27.7301 96.445 27.6278C96.7063 27.5227 96.9109 27.3778 97.0586 27.1932C97.2063 27.0057 97.2816 26.7869 97.2844 26.5369C97.2816 26.3097 97.2148 26.1222 97.0842 25.9744C96.9535 25.8239 96.7702 25.6989 96.5344 25.5994C96.3015 25.4972 96.0288 25.4062 95.7163 25.3267L94.7234 25.071C94.0046 24.8864 93.4364 24.6065 93.0188 24.2315C92.604 23.8537 92.3967 23.3523 92.3967 22.7273C92.3967 22.2131 92.5359 21.7628 92.8143 21.3764C93.0955 20.9901 93.4776 20.6903 93.9606 20.4773C94.4435 20.2614 94.9904 20.1534 95.6012 20.1534C96.2205 20.1534 96.7631 20.2614 97.229 20.4773C97.6978 20.6903 98.0657 20.9872 98.3327 21.3679C98.5998 21.7457 98.7376 22.1804 98.7461 22.6719H97.2248ZM107.745 23.2173H106.151C106.106 22.956 106.022 22.7244 105.9 22.5227C105.778 22.3182 105.626 22.1449 105.444 22.0028C105.262 21.8608 105.055 21.7543 104.822 21.6832C104.592 21.6094 104.343 21.5724 104.076 21.5724C103.602 21.5724 103.181 21.6918 102.815 21.9304C102.448 22.1662 102.161 22.5128 101.954 22.9702C101.746 23.4247 101.643 23.9801 101.643 24.6364C101.643 25.304 101.746 25.8665 101.954 26.3239C102.164 26.7784 102.451 27.1222 102.815 27.3551C103.181 27.5852 103.6 27.7003 104.072 27.7003C104.333 27.7003 104.577 27.6662 104.805 27.598C105.035 27.527 105.241 27.4233 105.423 27.2869C105.607 27.1506 105.762 26.983 105.887 26.7841C106.015 26.5852 106.103 26.358 106.151 26.1023L107.745 26.1108C107.685 26.5256 107.556 26.9148 107.357 27.2784C107.161 27.642 106.904 27.9631 106.586 28.2415C106.268 28.517 105.896 28.733 105.469 28.8892C105.043 29.0426 104.57 29.1193 104.05 29.1193C103.283 29.1193 102.599 28.9418 101.996 28.5866C101.394 28.2315 100.92 27.7188 100.573 27.0483C100.227 26.3778 100.053 25.5739 100.053 24.6364C100.053 23.696 100.228 22.892 100.577 22.2244C100.927 21.554 101.403 21.0412 102.005 20.6861C102.607 20.331 103.289 20.1534 104.05 20.1534C104.536 20.1534 104.988 20.2216 105.406 20.358C105.823 20.4943 106.195 20.6946 106.522 20.9588C106.849 21.2202 107.117 21.5412 107.327 21.9219C107.54 22.2997 107.68 22.7315 107.745 23.2173ZM109.193 29V20.2727H112.466C113.136 20.2727 113.699 20.3892 114.153 20.6222C114.61 20.8551 114.956 21.1818 115.189 21.6023C115.424 22.0199 115.542 22.5071 115.542 23.0639C115.542 23.6236 115.423 24.1094 115.184 24.5213C114.949 24.9304 114.6 25.2472 114.14 25.4716C113.68 25.6932 113.115 25.804 112.444 25.804H110.113V24.4915H112.231C112.623 24.4915 112.944 24.4375 113.194 24.3295C113.444 24.2187 113.629 24.0582 113.748 23.848C113.87 23.6349 113.931 23.3736 113.931 23.0639C113.931 22.7543 113.87 22.4901 113.748 22.2713C113.626 22.0497 113.44 21.8821 113.19 21.7685C112.94 21.652 112.618 21.5938 112.223 21.5938H110.774V29H109.193ZM113.701 25.0455L115.862 29H114.098L111.975 25.0455H113.701ZM118.578 20.2727V29H116.998V20.2727H118.578ZM120.29 29V20.2727H123.563C124.234 20.2727 124.796 20.3977 125.251 20.6477C125.708 20.8977 126.053 21.2415 126.286 21.679C126.522 22.1136 126.64 22.608 126.64 23.1619C126.64 23.7216 126.522 24.2187 126.286 24.6534C126.05 25.0881 125.702 25.4304 125.242 25.6804C124.782 25.9276 124.215 26.0511 123.542 26.0511H121.373V24.7514H123.329C123.721 24.7514 124.042 24.6832 124.292 24.5469C124.542 24.4105 124.727 24.223 124.846 23.9844C124.968 23.7457 125.029 23.4716 125.029 23.1619C125.029 22.8523 124.968 22.5795 124.846 22.3438C124.727 22.108 124.54 21.9247 124.288 21.794C124.038 21.6605 123.715 21.5938 123.32 21.5938H121.871V29H120.29ZM127.63 21.598V20.2727H134.593V21.598H131.895V29H130.327V21.598H127.63Z" fill="white"/>
</svg>
