<svg width="160" height="50" viewBox="0 0 160 50" fill="none" xmlns="http://www.w3.org/2000/svg">
<g clip-path="url(#clip0_496_213)">
<path d="M49.0781 29.831C48.897 30.8744 48.2526 31.7858 47.3101 32.3317C46.4316 32.8405 45.3789 32.9924 44.2643 33.1531C43.6672 33.2392 43.0497 33.3282 42.4466 33.477C40.8517 33.8703 39.3069 34.6376 37.813 35.3796C34.8233 36.8646 32.2414 38.1469 29.8069 36.4597C28.0236 35.2237 28.106 32.937 28.3137 31.6839C28.5063 30.5229 29.0268 29.4537 29.5302 28.4197C29.6172 28.2409 29.7024 28.0654 29.7854 27.8915C30.0349 27.9912 30.3003 28.0592 30.5769 28.0901C30.0645 29.7812 30.8703 31.62 32.5617 32.489L32.7932 32.6079L33.0384 32.5206C34.3755 32.0444 35.6076 31.2802 36.7005 30.2491C37.4069 29.5827 38.0143 28.8454 38.5135 28.0575C38.6632 28.0801 38.8162 28.0919 38.9721 28.0919C40.5245 28.0919 41.81 26.9314 42.0089 25.4325C42.6443 25.4092 43.3193 25.409 43.9584 25.4322C44.1572 26.9312 45.4428 28.0919 46.9952 28.0919C47.6443 28.0919 48.2464 27.8885 48.7424 27.5429C49.0867 28.2478 49.2153 29.041 49.0781 29.831ZM30.9186 23.1839C31.945 23.1839 32.78 24.0189 32.78 25.0452C32.78 25.4139 32.6718 25.7577 32.4861 26.0472C32.1766 26.5297 31.6508 26.8605 31.0465 26.9017C31.0042 26.9046 30.9616 26.9066 30.9186 26.9066C30.6899 26.9066 30.4708 26.8648 30.2682 26.7891C29.8584 26.6357 29.5169 26.3417 29.3021 25.9663C29.1466 25.6944 29.0573 25.3802 29.0573 25.0452C29.0573 24.0189 29.8923 23.1839 30.9186 23.1839ZM37.1107 25.0275C37.1107 24.095 37.8001 23.3207 38.6958 23.1868C38.786 23.1733 38.8783 23.1662 38.9721 23.1662C39.5688 23.1662 40.1 23.4489 40.4408 23.8869C40.5255 23.9957 40.5989 24.1138 40.658 24.2399C40.7703 24.4793 40.8334 24.7461 40.8334 25.0275C40.8334 25.1764 40.8154 25.321 40.7823 25.4598C40.6008 26.2192 39.9533 26.7996 39.1599 26.8795C39.0982 26.8857 39.0355 26.8889 38.9721 26.8889C38.6005 26.8889 38.2543 26.779 37.9633 26.5906C37.4508 26.2586 37.1107 25.6822 37.1107 25.0275ZM44.8793 22.8142C44.4806 23.1957 44.1841 23.6832 44.0364 24.2313C43.3471 24.2055 42.6162 24.2055 41.9309 24.2313C41.7735 23.6471 41.447 23.1317 41.0079 22.7401L42.9339 18.8456L44.8793 22.8142ZM36.5827 13.203H49.2799L46.281 22.0479C46.151 22.0791 46.0242 22.1184 45.9012 22.1656L42.9386 16.1222L39.9678 22.1295C39.8393 22.0853 39.707 22.0497 39.5715 22.0227L36.5827 13.203ZM48.8565 25.0275C48.8565 25.2142 48.8286 25.3943 48.7773 25.5645C48.6551 25.9691 48.3986 26.3159 48.0599 26.553C47.758 26.7644 47.3909 26.8889 46.9952 26.8889C46.1358 26.8889 45.4108 26.3032 45.1977 25.5101C45.1563 25.3561 45.1338 25.1944 45.1338 25.0275C45.1338 24.7731 45.1853 24.5305 45.2781 24.3095C45.3259 24.1955 45.3856 24.0879 45.4541 23.9867C45.7891 23.4923 46.3543 23.1662 46.9952 23.1662C47.054 23.1662 47.1119 23.1693 47.1693 23.1746C48.1143 23.2627 48.8565 24.0599 48.8565 25.0275ZM50.0595 25.0275C50.0595 23.5315 48.9817 22.2832 47.5619 22.0165L50.9581 12H34.9048L38.3062 22.0369C36.9357 22.3419 35.9077 23.5666 35.9077 25.0275C35.9077 26.1246 36.4875 27.0882 37.3564 27.6297C36.9385 28.2524 36.4428 28.8383 35.8749 29.3741C34.9742 30.2239 33.9708 30.8683 32.889 31.2923C31.7993 30.6078 31.3387 29.3171 31.8171 28.1925L31.8546 28.1044C31.878 28.0494 31.9015 27.9942 31.9249 27.9391C33.1217 27.5216 33.983 26.3825 33.983 25.0452C33.983 23.3555 32.6083 21.9809 30.9186 21.9809C29.2289 21.9809 27.8543 23.3555 27.8543 25.0452C27.8543 25.8981 28.2048 26.6704 28.769 27.2265C28.6668 27.4445 28.5591 27.6661 28.4486 27.8931C27.9328 28.9526 27.3481 30.1535 27.127 31.487C26.6878 34.1355 27.3962 36.2526 29.1216 37.4484C30.1687 38.1741 31.2319 38.4594 32.3019 38.4594C34.3167 38.4594 36.3548 37.4472 38.3481 36.457C39.7838 35.744 41.2683 35.0066 42.7346 34.645C43.2802 34.5104 43.8416 34.4295 44.436 34.3438C45.6147 34.1737 46.8335 33.998 47.9131 33.3727C49.1645 32.6478 50.0212 31.4319 50.2634 30.0369C50.4713 28.8392 50.2211 27.6396 49.6108 26.6224C49.8953 26.1575 50.0595 25.6114 50.0595 25.0275Z" fill="white"/>
</g>
<path d="M85.304 20.2727H86.8722V26.4091C86.8693 26.9716 86.75 27.456 86.5142 27.8622C86.2784 28.2656 85.9489 28.5767 85.5256 28.7955C85.1051 29.0114 84.6151 29.1193 84.0554 29.1193C83.544 29.1193 83.0838 29.0284 82.6747 28.8466C82.2685 28.6619 81.946 28.3892 81.7074 28.0284C81.4688 27.6676 81.3494 27.2187 81.3494 26.6818H82.9219C82.9247 26.9176 82.9759 27.1207 83.0753 27.2912C83.1776 27.4616 83.3182 27.5923 83.4972 27.6832C83.6761 27.7741 83.8821 27.8196 84.1151 27.8196C84.3679 27.8196 84.5824 27.767 84.7585 27.6619C84.9347 27.554 85.0682 27.3949 85.1591 27.1847C85.2528 26.9744 85.3011 26.7159 85.304 26.4091V20.2727ZM88.5874 29V20.2727H94.2635V21.598H90.1683V23.9673H93.9695V25.2926H90.1683V27.6747H94.2976V29H88.5874ZM100.619 22.6719C100.58 22.2997 100.412 22.0099 100.116 21.8026C99.8239 21.5952 99.4432 21.4915 98.9744 21.4915C98.6449 21.4915 98.3622 21.5412 98.1264 21.6406C97.8906 21.7401 97.7102 21.875 97.5852 22.0455C97.4602 22.2159 97.3963 22.4105 97.3935 22.6293C97.3935 22.8111 97.4347 22.9687 97.517 23.1023C97.6023 23.2358 97.7173 23.3494 97.8622 23.4432C98.0071 23.5341 98.1676 23.6108 98.3438 23.6733C98.5199 23.7358 98.6974 23.7884 98.8764 23.831L99.6946 24.0355C100.024 24.1122 100.341 24.2159 100.645 24.3466C100.952 24.4773 101.226 24.642 101.467 24.8409C101.712 25.0398 101.905 25.2798 102.047 25.5611C102.189 25.8423 102.26 26.1719 102.26 26.5497C102.26 27.0611 102.129 27.5114 101.868 27.9006C101.607 28.2869 101.229 28.5895 100.734 28.8082C100.243 29.0241 99.6477 29.1321 98.9489 29.1321C98.2699 29.1321 97.6804 29.027 97.1804 28.8168C96.6832 28.6065 96.294 28.2997 96.0128 27.8963C95.7344 27.4929 95.5838 27.0014 95.5611 26.4219H97.1165C97.1392 26.7259 97.233 26.9787 97.3977 27.1804C97.5625 27.3821 97.777 27.5327 98.0412 27.6321C98.3082 27.7315 98.6065 27.7812 98.9361 27.7812C99.2798 27.7812 99.581 27.7301 99.8395 27.6278C100.101 27.5227 100.305 27.3778 100.453 27.1932C100.601 27.0057 100.676 26.7869 100.679 26.5369C100.676 26.3097 100.609 26.1222 100.479 25.9744C100.348 25.8239 100.165 25.6989 99.929 25.5994C99.696 25.4972 99.4233 25.4062 99.1108 25.3267L98.1179 25.071C97.3991 24.8864 96.831 24.6065 96.4134 24.2315C95.9986 23.8537 95.7912 23.3523 95.7912 22.7273C95.7912 22.2131 95.9304 21.7628 96.2088 21.3764C96.4901 20.9901 96.8722 20.6903 97.3551 20.4773C97.8381 20.2614 98.3849 20.1534 98.9957 20.1534C99.6151 20.1534 100.158 20.2614 100.624 20.4773C101.092 20.6903 101.46 20.9872 101.727 21.3679C101.994 21.7457 102.132 22.1804 102.141 22.6719H100.619ZM103.286 21.598V20.2727H110.249V21.598H107.551V29H105.983V21.598H103.286Z" fill="white"/>
<defs>
<clipPath id="clip0_496_213">
<rect width="24" height="26.5312" fill="white" transform="translate(27 12)"/>
</clipPath>
</defs>
</svg>
