<svg width="160" height="50" viewBox="0 0 160 50" fill="none" xmlns="http://www.w3.org/2000/svg">
<path d="M84.0327 20.2727V29H82.6264L78.5142 23.0554H78.4418V29H76.8608V20.2727H78.2756L82.3835 26.2216H82.4602V20.2727H84.0327ZM85.7553 29V20.2727H91.4315V21.598H87.3363V23.9673H91.1374V25.2926H87.3363V27.6747H91.4656V29H85.7553ZM94.3654 20.2727L96.2873 23.4688H96.3555L98.2859 20.2727H100.088L97.3995 24.6364L100.131 29H98.2987L96.3555 25.8253H96.2873L94.3441 29H92.5202L95.2773 24.6364L92.5543 20.2727H94.3654ZM100.946 21.598V20.2727H107.909V21.598H105.212V29H103.643V21.598H100.946ZM111.605 20.2727H113.173V26.4091C113.17 26.9716 113.051 27.456 112.815 27.8622C112.579 28.2656 112.25 28.5767 111.826 28.7955C111.406 29.0114 110.916 29.1193 110.356 29.1193C109.845 29.1193 109.385 29.0284 108.975 28.8466C108.569 28.6619 108.247 28.3892 108.008 28.0284C107.77 27.6676 107.65 27.2187 107.65 26.6818H109.223C109.225 26.9176 109.277 27.1207 109.376 27.2912C109.478 27.4616 109.619 27.5923 109.798 27.6832C109.977 27.7741 110.183 27.8196 110.416 27.8196C110.669 27.8196 110.883 27.767 111.059 27.6619C111.235 27.554 111.369 27.3949 111.46 27.1847C111.554 26.9744 111.602 26.7159 111.605 26.4091V20.2727ZM119.631 22.6719C119.591 22.2997 119.424 22.0099 119.128 21.8026C118.836 21.5952 118.455 21.4915 117.986 21.4915C117.657 21.4915 117.374 21.5412 117.138 21.6406C116.902 21.7401 116.722 21.875 116.597 22.0455C116.472 22.2159 116.408 22.4105 116.405 22.6293C116.405 22.8111 116.446 22.9687 116.529 23.1023C116.614 23.2358 116.729 23.3494 116.874 23.4432C117.019 23.5341 117.179 23.6108 117.355 23.6733C117.532 23.7358 117.709 23.7884 117.888 23.831L118.706 24.0355C119.036 24.1122 119.353 24.2159 119.657 24.3466C119.963 24.4773 120.238 24.642 120.479 24.8409C120.723 25.0398 120.917 25.2798 121.059 25.5611C121.201 25.8423 121.272 26.1719 121.272 26.5497C121.272 27.0611 121.141 27.5114 120.88 27.9006C120.618 28.2869 120.24 28.5895 119.746 28.8082C119.255 29.0241 118.659 29.1321 117.961 29.1321C117.282 29.1321 116.692 29.027 116.192 28.8168C115.695 28.6065 115.306 28.2997 115.025 27.8963C114.746 27.4929 114.596 27.0014 114.573 26.4219H116.128C116.151 26.7259 116.245 26.9787 116.409 27.1804C116.574 27.3821 116.789 27.5327 117.053 27.6321C117.32 27.7315 117.618 27.7812 117.948 27.7812C118.292 27.7812 118.593 27.7301 118.851 27.6278C119.113 27.5227 119.317 27.3778 119.465 27.1932C119.613 27.0057 119.688 26.7869 119.691 26.5369C119.688 26.3097 119.621 26.1222 119.49 25.9744C119.36 25.8239 119.176 25.6989 118.941 25.5994C118.708 25.4972 118.435 25.4062 118.123 25.3267L117.13 25.071C116.411 24.8864 115.843 24.6065 115.425 24.2315C115.01 23.8537 114.803 23.3523 114.803 22.7273C114.803 22.2131 114.942 21.7628 115.221 21.3764C115.502 20.9901 115.884 20.6903 116.367 20.4773C116.85 20.2614 117.397 20.1534 118.007 20.1534C118.627 20.1534 119.169 20.2614 119.635 20.4773C120.104 20.6903 120.472 20.9872 120.739 21.3679C121.006 21.7457 121.144 22.1804 121.152 22.6719H119.631Z" fill="white"/>
<g clip-path="url(#clip0_496_260)">
<path d="M37.2141 13.0065C37.1625 13.0111 36.9982 13.0276 36.8504 13.0393C33.4416 13.3466 30.2487 15.1856 28.2264 18.0122C27.1003 19.5838 26.3801 21.3665 26.1079 23.2548C26.0117 23.914 26 24.1086 26 25.0024C26 25.8961 26.0117 26.0908 26.1079 26.7499C26.7601 31.256 29.9672 35.0419 34.3167 36.4447C35.0956 36.6957 35.9167 36.8669 36.8504 36.9701C37.2141 37.0101 38.7859 37.0101 39.1496 36.9701C40.7613 36.7918 42.1267 36.393 43.4733 35.7058C43.6798 35.6002 43.7197 35.572 43.6915 35.5486C43.6727 35.5345 42.793 34.3546 41.7372 32.9284L39.8182 30.3365L37.4135 26.778C36.0903 24.8217 35.0018 23.222 34.9924 23.222C34.983 23.2196 34.9736 24.8006 34.9689 26.7311C34.9619 30.1113 34.9595 30.2473 34.9173 30.3271C34.8563 30.442 34.8094 30.4889 34.7108 30.5405C34.6358 30.5781 34.5701 30.5851 34.2158 30.5851H33.81L33.7021 30.5171C33.6317 30.4725 33.5801 30.4139 33.5449 30.3459L33.4956 30.2403L33.5003 25.5372L33.5073 20.8317L33.5801 20.7402C33.6176 20.691 33.6974 20.6276 33.7537 20.5971C33.8498 20.5502 33.8874 20.5455 34.2932 20.5455C34.7719 20.5455 34.8516 20.5643 34.976 20.7004C35.0111 20.7379 36.3132 22.6989 37.871 25.061C39.4287 27.4231 41.5589 30.6484 42.6053 32.2318L44.5056 35.11L44.6018 35.0466C45.4534 34.493 46.3543 33.7049 47.0674 32.8839C48.5853 31.141 49.5636 29.0158 49.8921 26.7499C49.9883 26.0908 50 25.8961 50 25.0024C50 24.1086 49.9883 23.914 49.8921 23.2548C49.2399 18.7487 46.0328 14.9628 41.6833 13.56C40.9161 13.3114 40.0997 13.1402 39.1848 13.037C38.9595 13.0135 37.4088 12.9877 37.2141 13.0065ZM42.1267 20.264C42.2393 20.3203 42.3308 20.4282 42.3636 20.5408C42.3824 20.6018 42.3871 21.906 42.3824 24.8452L42.3754 29.0627L41.6317 27.9227L40.8856 26.7827V23.7169C40.8856 21.7348 40.895 20.6206 40.9091 20.5666C40.9466 20.4353 41.0287 20.3321 41.1414 20.2711C41.2375 20.2218 41.2727 20.2171 41.6411 20.2171C41.9883 20.2171 42.0493 20.2218 42.1267 20.264Z" fill="white"/>
</g>
<defs>
<clipPath id="clip0_496_260">
<rect width="24" height="24" fill="white" transform="translate(26 13)"/>
</clipPath>
</defs>
</svg>
