<svg width="160" height="50" viewBox="0 0 160 50" fill="none" xmlns="http://www.w3.org/2000/svg">
<g clip-path="url(#clip0_496_196)">
<path d="M39 38.0435C38.6273 38.0435 38.2795 37.9441 37.9565 37.7702L34.6522 35.8075C34.1553 35.5342 34.4037 35.4348 34.5528 35.3851C35.2236 35.1615 35.3478 35.1118 36.0435 34.7143C36.118 34.6646 36.2174 34.6894 36.2919 34.7391L38.8261 36.2547C38.9255 36.3043 39.0497 36.3043 39.1242 36.2547L49.0373 30.5155C49.1366 30.4658 49.1863 30.3665 49.1863 30.2422V18.7888C49.1863 18.6646 49.1366 18.5652 49.0373 18.5155L39.1242 12.8012C39.0248 12.7516 38.9006 12.7516 38.8261 12.8012L28.913 18.5155C28.8137 18.5652 28.764 18.6894 28.764 18.7888V30.2422C28.764 30.3416 28.8137 30.4658 28.913 30.5155L31.6211 32.0807C33.087 32.8261 34.0062 31.9565 34.0062 31.087V19.7826C34.0062 19.6335 34.1304 19.4845 34.3043 19.4845H35.5714C35.7205 19.4845 35.8696 19.6087 35.8696 19.7826V31.087C35.8696 33.0497 34.8012 34.1925 32.9379 34.1925C32.3665 34.1925 31.9193 34.1925 30.6522 33.5714L28.0435 32.0807C27.3975 31.7081 27 31.0124 27 30.2671V18.8137C27 18.0683 27.3975 17.3727 28.0435 17L37.9565 11.2609C38.5776 10.913 39.4224 10.913 40.0435 11.2609L49.9565 17C50.6025 17.3727 51 18.0683 51 18.8137V30.2671C51 31.0124 50.6025 31.7081 49.9565 32.0807L40.0435 37.8199C39.7205 37.9689 39.3478 38.0435 39 38.0435ZM42.0559 30.1677C37.7081 30.1677 36.8137 28.1801 36.8137 26.4907C36.8137 26.3416 36.9379 26.1925 37.1118 26.1925H38.4037C38.5528 26.1925 38.677 26.2919 38.677 26.441C38.8758 27.7578 39.4472 28.4037 42.0807 28.4037C44.1677 28.4037 45.0621 27.9317 45.0621 26.8137C45.0621 26.1677 44.8137 25.6957 41.559 25.3727C38.8509 25.0994 37.1615 24.5031 37.1615 22.3416C37.1615 20.3292 38.8509 19.1366 41.6832 19.1366C44.8634 19.1366 46.4286 20.2298 46.6273 22.6149C46.6273 22.6894 46.6025 22.764 46.5528 22.8385C46.5031 22.8882 46.4286 22.9379 46.354 22.9379H45.0621C44.9379 22.9379 44.8137 22.8385 44.7888 22.7143C44.4907 21.3478 43.7205 20.9006 41.6832 20.9006C39.3975 20.9006 39.1242 21.6957 39.1242 22.2919C39.1242 23.0124 39.4472 23.236 42.528 23.6335C45.5839 24.0311 47.0248 24.6025 47.0248 26.7391C47 28.9255 45.2112 30.1677 42.0559 30.1677Z" fill="white"/>
</g>
<path d="M79.0327 20.2727V29H77.6264L73.5142 23.0554H73.4418V29H71.8608V20.2727H73.2756L77.3835 26.2216H77.4602V20.2727H79.0327ZM88.5536 24.6364C88.5536 25.5767 88.3775 26.3821 88.0252 27.0526C87.6758 27.7202 87.1985 28.2315 86.5934 28.5866C85.9911 28.9418 85.3079 29.1193 84.5437 29.1193C83.7795 29.1193 83.0948 28.9418 82.4897 28.5866C81.8874 28.2287 81.4102 27.7159 81.0579 27.0483C80.7085 26.3778 80.5337 25.5739 80.5337 24.6364C80.5337 23.696 80.7085 22.892 81.0579 22.2244C81.4102 21.554 81.8874 21.0412 82.4897 20.6861C83.0948 20.331 83.7795 20.1534 84.5437 20.1534C85.3079 20.1534 85.9911 20.331 86.5934 20.6861C87.1985 21.0412 87.6758 21.554 88.0252 22.2244C88.3775 22.892 88.5536 23.696 88.5536 24.6364ZM86.9641 24.6364C86.9641 23.9744 86.8604 23.4162 86.6531 22.9616C86.4485 22.5043 86.1644 22.1591 85.8008 21.9261C85.4371 21.6903 85.0181 21.5724 84.5437 21.5724C84.0692 21.5724 83.6502 21.6903 83.2866 21.9261C82.9229 22.1591 82.6374 22.5043 82.43 22.9616C82.2255 23.4162 82.1232 23.9744 82.1232 24.6364C82.1232 25.2983 82.2255 25.858 82.43 26.3153C82.6374 26.7699 82.9229 27.1151 83.2866 27.3509C83.6502 27.5838 84.0692 27.7003 84.5437 27.7003C85.0181 27.7003 85.4371 27.5838 85.8008 27.3509C86.1644 27.1151 86.4485 26.7699 86.6531 26.3153C86.8604 25.858 86.9641 25.2983 86.9641 24.6364ZM93.0057 29H90.0483V20.2727H93.0653C93.9318 20.2727 94.6761 20.4474 95.2983 20.7969C95.9233 21.1435 96.4034 21.642 96.7386 22.2926C97.0739 22.9432 97.2415 23.7216 97.2415 24.6278C97.2415 25.5369 97.0724 26.3182 96.7344 26.9716C96.3991 27.625 95.9148 28.1264 95.2812 28.4759C94.6506 28.8253 93.892 29 93.0057 29ZM91.6293 27.6321H92.929C93.5369 27.6321 94.044 27.5213 94.4503 27.2997C94.8565 27.0753 95.1619 26.7415 95.3665 26.2983C95.571 25.8523 95.6733 25.2955 95.6733 24.6278C95.6733 23.9602 95.571 23.4062 95.3665 22.9659C95.1619 22.5227 94.8594 22.1918 94.4588 21.973C94.0611 21.7514 93.5668 21.6406 92.9759 21.6406H91.6293V27.6321ZM98.7436 29V20.2727H104.42V21.598H100.325V23.9673H104.126V25.2926H100.325V27.6747H104.454V29H98.7436ZM109.476 20.2727H111.044V26.4091C111.041 26.9716 110.922 27.456 110.686 27.8622C110.45 28.2656 110.121 28.5767 109.697 28.7955C109.277 29.0114 108.787 29.1193 108.227 29.1193C107.716 29.1193 107.256 29.0284 106.847 28.8466C106.44 28.6619 106.118 28.3892 105.879 28.0284C105.641 27.6676 105.521 27.2187 105.521 26.6818H107.094C107.097 26.9176 107.148 27.1207 107.247 27.2912C107.349 27.4616 107.49 27.5923 107.669 27.6832C107.848 27.7741 108.054 27.8196 108.287 27.8196C108.54 27.8196 108.754 27.767 108.93 27.6619C109.107 27.554 109.24 27.3949 109.331 27.1847C109.425 26.9744 109.473 26.7159 109.476 26.4091V20.2727ZM117.502 22.6719C117.462 22.2997 117.295 22.0099 116.999 21.8026C116.707 21.5952 116.326 21.4915 115.857 21.4915C115.528 21.4915 115.245 21.5412 115.009 21.6406C114.773 21.7401 114.593 21.875 114.468 22.0455C114.343 22.2159 114.279 22.4105 114.276 22.6293C114.276 22.8111 114.317 22.9687 114.4 23.1023C114.485 23.2358 114.6 23.3494 114.745 23.4432C114.89 23.5341 115.05 23.6108 115.227 23.6733C115.403 23.7358 115.58 23.7884 115.759 23.831L116.577 24.0355C116.907 24.1122 117.224 24.2159 117.528 24.3466C117.835 24.4773 118.109 24.642 118.35 24.8409C118.594 25.0398 118.788 25.2798 118.93 25.5611C119.072 25.8423 119.143 26.1719 119.143 26.5497C119.143 27.0611 119.012 27.5114 118.751 27.9006C118.489 28.2869 118.112 28.5895 117.617 28.8082C117.126 29.0241 116.531 29.1321 115.832 29.1321C115.153 29.1321 114.563 29.027 114.063 28.8168C113.566 28.6065 113.177 28.2997 112.896 27.8963C112.617 27.4929 112.467 27.0014 112.444 26.4219H113.999C114.022 26.7259 114.116 26.9787 114.281 27.1804C114.445 27.3821 114.66 27.5327 114.924 27.6321C115.191 27.7315 115.489 27.7812 115.819 27.7812C116.163 27.7812 116.464 27.7301 116.722 27.6278C116.984 27.5227 117.188 27.3778 117.336 27.1932C117.484 27.0057 117.559 26.7869 117.562 26.5369C117.559 26.3097 117.492 26.1222 117.362 25.9744C117.231 25.8239 117.048 25.6989 116.812 25.5994C116.579 25.4972 116.306 25.4062 115.994 25.3267L115.001 25.071C114.282 24.8864 113.714 24.6065 113.296 24.2315C112.881 23.8537 112.674 23.3523 112.674 22.7273C112.674 22.2131 112.813 21.7628 113.092 21.3764C113.373 20.9901 113.755 20.6903 114.238 20.4773C114.721 20.2614 115.268 20.1534 115.879 20.1534C116.498 20.1534 117.04 20.2614 117.506 20.4773C117.975 20.6903 118.343 20.9872 118.61 21.3679C118.877 21.7457 119.015 22.1804 119.023 22.6719H117.502Z" fill="white"/>
<defs>
<clipPath id="clip0_496_196">
<rect width="24" height="27.0938" fill="white" transform="translate(27 11)"/>
</clipPath>
</defs>
</svg>
