<svg width="160" height="50" viewBox="0 0 160 50" fill="none" xmlns="http://www.w3.org/2000/svg">
<path d="M39 27.4766C40.3807 27.4766 41.5 26.3573 41.5 24.9766C41.5 23.5959 40.3807 22.4766 39 22.4766C37.6193 22.4766 36.5 23.5959 36.5 24.9766C36.5 26.3573 37.6193 27.4766 39 27.4766Z" fill="white"/>
<path d="M39 30.7053C35.9951 30.778 32.9978 30.3729 30.12 29.5053C28.7906 29.0839 27.5507 28.42 26.463 27.5473C26.0479 27.2491 25.7023 26.8647 25.4497 26.4204C25.1972 25.9761 25.0438 25.4825 25 24.9733C25 23.3203 26.816 21.7003 29.858 20.6403C32.8127 19.701 35.8999 19.2458 39 19.2923C42.0587 19.2496 45.1045 19.6965 48.022 20.6163C49.3023 21.0244 50.5001 21.6562 51.56 22.4823C51.968 22.7665 52.3084 23.137 52.5573 23.5675C52.8061 23.998 52.9573 24.4779 53 24.9733C53 26.6913 50.97 28.4323 47.7 29.5143C44.8779 30.3537 41.9438 30.7553 39 30.7053ZM39 20.4883C36.0341 20.4486 33.0808 20.8814 30.251 21.7703C27.451 22.7473 26.196 24.0833 26.196 24.9703C26.196 25.8983 27.545 27.3573 30.507 28.3703C33.2601 29.1961 36.1266 29.5806 39 29.5093C41.8164 29.5597 44.6239 29.1786 47.325 28.3793C50.4 27.3603 51.8 25.8993 51.8 24.9733C51.7495 24.6555 51.6337 24.3517 51.4599 24.0809C51.2861 23.8102 51.058 23.5784 50.79 23.4003C49.8418 22.6674 48.7717 22.1075 47.629 21.7463C44.838 20.87 41.925 20.4454 39 20.4883Z" fill="white"/>
<path d="M33.3196 37.4405C32.8531 37.4512 32.3921 37.3381 31.9836 37.1125C30.5516 36.2865 30.0556 33.9045 30.6566 30.7395C31.3193 27.7106 32.4674 24.8088 34.0566 22.1465C35.5473 19.4756 37.4558 17.0604 39.7096 14.9925C40.7028 14.0872 41.8485 13.3651 43.0936 12.8595C43.544 12.6485 44.0352 12.5391 44.5326 12.5391C45.03 12.5391 45.5212 12.6485 45.9716 12.8595C47.4606 13.7175 47.9536 16.3455 47.2586 19.7185C46.5755 22.5831 45.4572 25.326 43.9426 27.8515C42.5043 30.4909 40.656 32.885 38.4666 34.9445C37.4374 35.8853 36.2429 36.6275 34.9436 37.1335C34.4234 37.3266 33.8744 37.4304 33.3196 37.4405ZM35.0926 22.7405C33.5767 25.2899 32.4763 28.0642 31.8326 30.9595C31.2796 33.8745 31.8106 35.6275 32.5826 36.0735C33.3826 36.5365 35.3246 36.0975 37.6826 34.0375C39.7726 32.0645 41.5368 29.7727 42.9096 27.2475C44.3605 24.833 45.4333 22.2107 46.0906 19.4715C46.7446 16.2965 46.1796 14.3525 45.3776 13.8905C45.077 13.7754 44.7558 13.7238 44.4343 13.7391C44.1127 13.7544 43.7979 13.8363 43.5096 13.9795C42.4013 14.4369 41.3823 15.0862 40.4996 15.8975C38.3463 17.8783 36.5233 20.1905 35.0996 22.7465L35.0926 22.7405Z" fill="white"/>
<path d="M44.6761 37.4579C43.3211 37.4579 41.6001 36.6379 39.8081 35.0969C37.5148 33.0102 35.574 30.5663 34.0611 27.8599C32.4918 25.2343 31.3527 22.3745 30.6871 19.3889C30.3984 18.0754 30.3449 16.7211 30.5291 15.3889C30.5717 14.8947 30.7221 14.4159 30.9699 13.9862C31.2177 13.5565 31.5567 13.1864 31.9631 12.9019C33.4501 12.0409 35.9731 12.9259 38.5481 15.2119C40.6887 17.2341 42.5065 19.5726 43.9381 22.1459C45.5064 24.7103 46.6574 27.5075 47.3481 30.4329C47.6492 31.7946 47.6956 33.2003 47.4851 34.5789C47.435 35.0873 47.2755 35.5789 47.0176 36.0199C46.7598 36.4609 46.4096 36.8409 45.9911 37.1339C45.5892 37.3567 45.1354 37.4685 44.6761 37.4579ZM35.0961 27.2579C36.5475 29.8444 38.4014 32.1833 40.5881 34.1869C42.8371 36.1219 44.6211 36.5379 45.3881 36.0869C46.1881 35.6219 46.7781 33.7239 46.1701 30.6529C45.5039 27.8599 44.4 25.1898 42.8991 22.7419C41.5329 20.2791 39.7978 18.0398 37.7541 16.1019C35.3301 13.9499 33.3641 13.4689 32.5631 13.9329C32.3134 14.1358 32.1085 14.3883 31.9614 14.6743C31.8142 14.9604 31.728 15.2739 31.7081 15.5949C31.5491 16.783 31.6009 17.9898 31.8611 19.1599C32.5014 22.0151 33.5938 24.7495 35.0971 27.2599L35.0961 27.2579Z" fill="white"/>
<path d="M75.8608 29V20.2727H79.1335C79.804 20.2727 80.3665 20.3892 80.821 20.6222C81.2784 20.8551 81.6236 21.1818 81.8565 21.6023C82.0923 22.0199 82.2102 22.5071 82.2102 23.0639C82.2102 23.6236 82.0909 24.1094 81.8523 24.5213C81.6165 24.9304 81.2685 25.2472 80.8082 25.4716C80.348 25.6932 79.7827 25.804 79.1122 25.804H76.7812V24.4915H78.8991C79.2912 24.4915 79.6122 24.4375 79.8622 24.3295C80.1122 24.2187 80.2969 24.0582 80.4162 23.848C80.5384 23.6349 80.5994 23.3736 80.5994 23.0639C80.5994 22.7543 80.5384 22.4901 80.4162 22.2713C80.294 22.0497 80.108 21.8821 79.858 21.7685C79.608 21.652 79.2855 21.5938 78.8906 21.5938H77.4418V29H75.8608ZM80.3693 25.0455L82.5298 29H80.7656L78.6435 25.0455H80.3693ZM83.6655 29V20.2727H89.3416V21.598H85.2464V23.9673H89.0476V25.2926H85.2464V27.6747H89.3757V29H83.6655ZM92.0753 29H90.3878L93.4602 20.2727H95.4119L98.4886 29H96.8011L94.4702 22.0625H94.402L92.0753 29ZM92.1307 25.5781H96.733V26.848H92.1307V25.5781ZM106.698 23.2173H105.104C105.059 22.956 104.975 22.7244 104.853 22.5227C104.731 22.3182 104.579 22.1449 104.397 22.0028C104.215 21.8608 104.008 21.7543 103.775 21.6832C103.545 21.6094 103.296 21.5724 103.029 21.5724C102.555 21.5724 102.134 21.6918 101.768 21.9304C101.401 22.1662 101.114 22.5128 100.907 22.9702C100.7 23.4247 100.596 23.9801 100.596 24.6364C100.596 25.304 100.7 25.8665 100.907 26.3239C101.117 26.7784 101.404 27.1222 101.768 27.3551C102.134 27.5852 102.553 27.7003 103.025 27.7003C103.286 27.7003 103.531 27.6662 103.758 27.598C103.988 27.527 104.194 27.4233 104.376 27.2869C104.56 27.1506 104.715 26.983 104.84 26.7841C104.968 26.5852 105.056 26.358 105.104 26.1023L106.698 26.1108C106.638 26.5256 106.509 26.9148 106.31 27.2784C106.114 27.642 105.857 27.9631 105.539 28.2415C105.221 28.517 104.849 28.733 104.423 28.8892C103.996 29.0426 103.523 29.1193 103.004 29.1193C102.237 29.1193 101.552 28.9418 100.95 28.5866C100.347 28.2315 99.8729 27.7188 99.5263 27.0483C99.1797 26.3778 99.0064 25.5739 99.0064 24.6364C99.0064 23.696 99.1811 22.892 99.5305 22.2244C99.88 21.554 100.356 21.0412 100.958 20.6861C101.56 20.331 102.242 20.1534 103.004 20.1534C103.489 20.1534 103.941 20.2216 104.359 20.358C104.776 20.4943 105.148 20.6946 105.475 20.9588C105.802 21.2202 106.07 21.5412 106.281 21.9219C106.494 22.2997 106.633 22.7315 106.698 23.2173ZM107.762 21.598V20.2727H114.725V21.598H112.028V29H110.46V21.598H107.762Z" fill="white"/>
</svg>
