<svg width="160" height="50" viewBox="0 0 160 50" fill="none" xmlns="http://www.w3.org/2000/svg">
<path d="M88.6037 22.6719C88.5639 22.2997 88.3963 22.0099 88.1009 21.8026C87.8082 21.5952 87.4276 21.4915 86.9588 21.4915C86.6293 21.4915 86.3466 21.5412 86.1108 21.6406C85.875 21.7401 85.6946 21.875 85.5696 22.0455C85.4446 22.2159 85.3807 22.4105 85.3778 22.6293C85.3778 22.8111 85.419 22.9687 85.5014 23.1023C85.5866 23.2358 85.7017 23.3494 85.8466 23.4432C85.9915 23.5341 86.152 23.6108 86.3281 23.6733C86.5043 23.7358 86.6818 23.7884 86.8608 23.831L87.679 24.0355C88.0085 24.1122 88.3253 24.2159 88.6293 24.3466C88.9361 24.4773 89.2102 24.642 89.4517 24.8409C89.696 25.0398 89.8892 25.2798 90.0312 25.5611C90.1733 25.8423 90.2443 26.1719 90.2443 26.5497C90.2443 27.0611 90.1136 27.5114 89.8523 27.9006C89.5909 28.2869 89.2131 28.5895 88.7188 28.8082C88.2273 29.0241 87.6321 29.1321 86.9332 29.1321C86.2543 29.1321 85.6648 29.027 85.1648 28.8168C84.6676 28.6065 84.2784 28.2997 83.9972 27.8963C83.7188 27.4929 83.5682 27.0014 83.5455 26.4219H85.1009C85.1236 26.7259 85.2173 26.9787 85.3821 27.1804C85.5469 27.3821 85.7614 27.5327 86.0256 27.6321C86.2926 27.7315 86.5909 27.7812 86.9205 27.7812C87.2642 27.7812 87.5653 27.7301 87.8239 27.6278C88.0852 27.5227 88.2898 27.3778 88.4375 27.1932C88.5852 27.0057 88.6605 26.7869 88.6634 26.5369C88.6605 26.3097 88.5938 26.1222 88.4631 25.9744C88.3324 25.8239 88.1491 25.6989 87.9134 25.5994C87.6804 25.4972 87.4077 25.4062 87.0952 25.3267L86.1023 25.071C85.3835 24.8864 84.8153 24.6065 84.3977 24.2315C83.983 23.8537 83.7756 23.3523 83.7756 22.7273C83.7756 22.2131 83.9148 21.7628 84.1932 21.3764C84.4744 20.9901 84.8565 20.6903 85.3395 20.4773C85.8224 20.2614 86.3693 20.1534 86.9801 20.1534C87.5994 20.1534 88.142 20.2614 88.608 20.4773C89.0767 20.6903 89.4446 20.9872 89.7116 21.3679C89.9787 21.7457 90.1165 22.1804 90.125 22.6719H88.6037ZM92.6339 29H90.9464L94.0188 20.2727H95.9705L99.0472 29H97.3597L95.0288 22.0625H94.9606L92.6339 29ZM92.6893 25.5781H97.2915V26.848H92.6893V25.5781ZM104.799 22.6719C104.759 22.2997 104.592 22.0099 104.296 21.8026C104.004 21.5952 103.623 21.4915 103.154 21.4915C102.825 21.4915 102.542 21.5412 102.306 21.6406C102.07 21.7401 101.89 21.875 101.765 22.0455C101.64 22.2159 101.576 22.4105 101.573 22.6293C101.573 22.8111 101.614 22.9687 101.697 23.1023C101.782 23.2358 101.897 23.3494 102.042 23.4432C102.187 23.5341 102.347 23.6108 102.523 23.6733C102.7 23.7358 102.877 23.7884 103.056 23.831L103.874 24.0355C104.204 24.1122 104.521 24.2159 104.825 24.3466C105.131 24.4773 105.406 24.642 105.647 24.8409C105.891 25.0398 106.085 25.2798 106.227 25.5611C106.369 25.8423 106.44 26.1719 106.44 26.5497C106.44 27.0611 106.309 27.5114 106.048 27.9006C105.786 28.2869 105.408 28.5895 104.914 28.8082C104.423 29.0241 103.827 29.1321 103.129 29.1321C102.45 29.1321 101.86 29.027 101.36 28.8168C100.863 28.6065 100.474 28.2997 100.192 27.8963C99.9141 27.4929 99.7635 27.0014 99.7408 26.4219H101.296C101.319 26.7259 101.413 26.9787 101.577 27.1804C101.742 27.3821 101.957 27.5327 102.221 27.6321C102.488 27.7315 102.786 27.7812 103.116 27.7812C103.46 27.7812 103.761 27.7301 104.019 27.6278C104.281 27.5227 104.485 27.3778 104.633 27.1932C104.781 27.0057 104.856 26.7869 104.859 26.5369C104.856 26.3097 104.789 26.1222 104.658 25.9744C104.528 25.8239 104.344 25.6989 104.109 25.5994C103.876 25.4972 103.603 25.4062 103.29 25.3267L102.298 25.071C101.579 24.8864 101.011 24.6065 100.593 24.2315C100.178 23.8537 99.9709 23.3523 99.9709 22.7273C99.9709 22.2131 100.11 21.7628 100.388 21.3764C100.67 20.9901 101.052 20.6903 101.535 20.4773C102.018 20.2614 102.565 20.1534 103.175 20.1534C103.795 20.1534 104.337 20.2614 104.803 20.4773C105.272 20.6903 105.64 20.9872 105.907 21.3679C106.174 21.7457 106.312 22.1804 106.32 22.6719H104.799ZM112.592 22.6719C112.552 22.2997 112.385 22.0099 112.089 21.8026C111.797 21.5952 111.416 21.4915 110.947 21.4915C110.618 21.4915 110.335 21.5412 110.099 21.6406C109.863 21.7401 109.683 21.875 109.558 22.0455C109.433 22.2159 109.369 22.4105 109.366 22.6293C109.366 22.8111 109.407 22.9687 109.49 23.1023C109.575 23.2358 109.69 23.3494 109.835 23.4432C109.98 23.5341 110.14 23.6108 110.316 23.6733C110.493 23.7358 110.67 23.7884 110.849 23.831L111.667 24.0355C111.997 24.1122 112.314 24.2159 112.618 24.3466C112.924 24.4773 113.199 24.642 113.44 24.8409C113.684 25.0398 113.877 25.2798 114.02 25.5611C114.162 25.8423 114.233 26.1719 114.233 26.5497C114.233 27.0611 114.102 27.5114 113.841 27.9006C113.579 28.2869 113.201 28.5895 112.707 28.8082C112.216 29.0241 111.62 29.1321 110.922 29.1321C110.243 29.1321 109.653 29.027 109.153 28.8168C108.656 28.6065 108.267 28.2997 107.985 27.8963C107.707 27.4929 107.556 27.0014 107.534 26.4219H109.089C109.112 26.7259 109.206 26.9787 109.37 27.1804C109.535 27.3821 109.75 27.5327 110.014 27.6321C110.281 27.7315 110.579 27.7812 110.909 27.7812C111.252 27.7812 111.554 27.7301 111.812 27.6278C112.074 27.5227 112.278 27.3778 112.426 27.1932C112.574 27.0057 112.649 26.7869 112.652 26.5369C112.649 26.3097 112.582 26.1222 112.451 25.9744C112.321 25.8239 112.137 25.6989 111.902 25.5994C111.669 25.4972 111.396 25.4062 111.083 25.3267L110.091 25.071C109.372 24.8864 108.804 24.6065 108.386 24.2315C107.971 23.8537 107.764 23.3523 107.764 22.7273C107.764 22.2131 107.903 21.7628 108.181 21.3764C108.463 20.9901 108.845 20.6903 109.328 20.4773C109.811 20.2614 110.358 20.1534 110.968 20.1534C111.588 20.1534 112.13 20.2614 112.596 20.4773C113.065 20.6903 113.433 20.9872 113.7 21.3679C113.967 21.7457 114.105 22.1804 114.113 22.6719H112.592Z" fill="white"/>
<path d="M40.0938 12.8744C32.4757 15.4932 27.5556 20.81 28.0317 23.9842C28.5079 27.1584 33.2692 29.6978 35.4118 31.3643C32.6344 32.7927 29.1427 34.9353 29.2221 37.7127C29.3808 41.5218 33.5073 40.3315 35.2531 39.2205C36.9989 38.1095 38.7447 35.0146 37.6338 31.7611C40.0938 31.1262 42.2364 31.9198 42.8712 32.3959C45.3313 34.1417 44.0616 36.1256 43.1887 36.443C42.3157 36.7605 42.8712 36.9192 43.4267 36.7605C43.9822 36.6018 45.1725 35.8082 45.1725 34.4592C45.1725 31.0469 41.5222 29.4598 36.9989 30.6501C34.3802 27.8726 30.8092 26.603 30.9679 23.5874C31.0473 22.4765 31.444 19.6197 38.5067 16.0487C45.5693 12.4777 50.5687 13.9061 49.9339 17.1596C48.9816 22.0797 40.4112 25.4126 37.3957 22.5558C37.237 22.2384 36.6815 22.0003 36.9989 22.8732C38.586 26.841 51.4416 25.0158 51.9971 16.6042C52.1558 12.1602 45.728 10.9699 40.0938 12.8744ZM33.2692 38.2682C31.2853 38.9031 31.3647 37.6334 31.444 37.1572C31.6821 35.8082 32.7931 34.1417 36.126 32.4753C37.0783 35.4908 34.9357 37.7921 33.2692 38.2682Z" fill="white"/>
</svg>
