<svg width="160" height="50" viewBox="0 0 160 50" fill="none" xmlns="http://www.w3.org/2000/svg">
<path d="M58.4773 21.598V20.2727H65.4403V21.598H62.7429V29H61.1747V21.598H58.4773ZM66.1861 20.2727H67.9716L70.1065 24.1335H70.1918L72.3267 20.2727H74.1122L70.9375 25.7443V29H69.3608V25.7443L66.1861 20.2727ZM75.2319 29V20.2727H78.5046C79.1751 20.2727 79.7376 20.3977 80.1921 20.6477C80.6495 20.8977 80.9947 21.2415 81.2276 21.679C81.4634 22.1136 81.5813 22.608 81.5813 23.1619C81.5813 23.7216 81.4634 24.2187 81.2276 24.6534C80.9918 25.0881 80.6438 25.4304 80.1836 25.6804C79.7234 25.9276 79.1566 26.0511 78.4833 26.0511H76.3143V24.7514H78.2702C78.6623 24.7514 78.9833 24.6832 79.2333 24.5469C79.4833 24.4105 79.668 24.223 79.7873 23.9844C79.9094 23.7457 79.9705 23.4716 79.9705 23.1619C79.9705 22.8523 79.9094 22.5795 79.7873 22.3438C79.668 22.108 79.4819 21.9247 79.229 21.794C78.979 21.6605 78.6566 21.5938 78.2617 21.5938H76.8129V29H75.2319ZM82.9545 29V20.2727H88.6307V21.598H84.5355V23.9673H88.3366V25.2926H84.5355V27.6747H88.6648V29H82.9545ZM94.9865 22.6719C94.9467 22.2997 94.7791 22.0099 94.4837 21.8026C94.1911 21.5952 93.8104 21.4915 93.3416 21.4915C93.0121 21.4915 92.7294 21.5412 92.4936 21.6406C92.2578 21.7401 92.0774 21.875 91.9524 22.0455C91.8274 22.2159 91.7635 22.4105 91.7607 22.6293C91.7607 22.8111 91.8018 22.9687 91.8842 23.1023C91.9695 23.2358 92.0845 23.3494 92.2294 23.4432C92.3743 23.5341 92.5348 23.6108 92.7109 23.6733C92.8871 23.7358 93.0646 23.7884 93.2436 23.831L94.0618 24.0355C94.3913 24.1122 94.7081 24.2159 95.0121 24.3466C95.3189 24.4773 95.593 24.642 95.8345 24.8409C96.0788 25.0398 96.272 25.2798 96.4141 25.5611C96.5561 25.8423 96.6271 26.1719 96.6271 26.5497C96.6271 27.0611 96.4964 27.5114 96.2351 27.9006C95.9737 28.2869 95.5959 28.5895 95.1016 28.8082C94.6101 29.0241 94.0149 29.1321 93.3161 29.1321C92.6371 29.1321 92.0476 29.027 91.5476 28.8168C91.0504 28.6065 90.6612 28.2997 90.38 27.8963C90.1016 27.4929 89.951 27.0014 89.9283 26.4219H91.4837C91.5064 26.7259 91.6001 26.9787 91.7649 27.1804C91.9297 27.3821 92.1442 27.5327 92.4084 27.6321C92.6754 27.7315 92.9737 27.7812 93.3033 27.7812C93.647 27.7812 93.9482 27.7301 94.2067 27.6278C94.468 27.5227 94.6726 27.3778 94.8203 27.1932C94.968 27.0057 95.0433 26.7869 95.0462 26.5369C95.0433 26.3097 94.9766 26.1222 94.8459 25.9744C94.7152 25.8239 94.532 25.6989 94.2962 25.5994C94.0632 25.4972 93.7905 25.4062 93.478 25.3267L92.4851 25.071C91.7663 24.8864 91.1982 24.6065 90.7805 24.2315C90.3658 23.8537 90.1584 23.3523 90.1584 22.7273C90.1584 22.2131 90.2976 21.7628 90.576 21.3764C90.8572 20.9901 91.2393 20.6903 91.7223 20.4773C92.2053 20.2614 92.7521 20.1534 93.3629 20.1534C93.9822 20.1534 94.5249 20.2614 94.9908 20.4773C95.4595 20.6903 95.8274 20.9872 96.0945 21.3679C96.3615 21.7457 96.4993 22.1804 96.5078 22.6719H94.9865ZM105.507 23.2173H103.913C103.868 22.956 103.784 22.7244 103.662 22.5227C103.539 22.3182 103.387 22.1449 103.206 22.0028C103.024 21.8608 102.816 21.7543 102.583 21.6832C102.353 21.6094 102.105 21.5724 101.838 21.5724C101.363 21.5724 100.943 21.6918 100.576 21.9304C100.21 22.1662 99.9229 22.5128 99.7156 22.9702C99.5082 23.4247 99.4045 23.9801 99.4045 24.6364C99.4045 25.304 99.5082 25.8665 99.7156 26.3239C99.9258 26.7784 100.213 27.1222 100.576 27.3551C100.943 27.5852 101.362 27.7003 101.833 27.7003C102.095 27.7003 102.339 27.6662 102.566 27.598C102.797 27.527 103.002 27.4233 103.184 27.2869C103.369 27.1506 103.524 26.983 103.649 26.7841C103.777 26.5852 103.865 26.358 103.913 26.1023L105.507 26.1108C105.447 26.5256 105.318 26.9148 105.119 27.2784C104.923 27.642 104.666 27.9631 104.348 28.2415C104.029 28.517 103.657 28.733 103.231 28.8892C102.805 29.0426 102.332 29.1193 101.812 29.1193C101.045 29.1193 100.36 28.9418 99.7582 28.5866C99.1559 28.2315 98.6815 27.7188 98.3349 27.0483C97.9883 26.3778 97.815 25.5739 97.815 24.6364C97.815 23.696 97.9897 22.892 98.3391 22.2244C98.6886 21.554 99.1644 21.0412 99.7667 20.6861C100.369 20.331 101.051 20.1534 101.812 20.1534C102.298 20.1534 102.75 20.2216 103.167 20.358C103.585 20.4943 103.957 20.6946 104.284 20.9588C104.61 21.2202 104.879 21.5412 105.089 21.9219C105.302 22.2997 105.441 22.7315 105.507 23.2173ZM106.955 29V20.2727H110.227C110.898 20.2727 111.46 20.3892 111.915 20.6222C112.372 20.8551 112.717 21.1818 112.95 21.6023C113.186 22.0199 113.304 22.5071 113.304 23.0639C113.304 23.6236 113.185 24.1094 112.946 24.5213C112.71 24.9304 112.362 25.2472 111.902 25.4716C111.442 25.6932 110.876 25.804 110.206 25.804H107.875V24.4915H109.993C110.385 24.4915 110.706 24.4375 110.956 24.3295C111.206 24.2187 111.391 24.0582 111.51 23.848C111.632 23.6349 111.693 23.3736 111.693 23.0639C111.693 22.7543 111.632 22.4901 111.51 22.2713C111.388 22.0497 111.202 21.8821 110.952 21.7685C110.702 21.652 110.379 21.5938 109.984 21.5938H108.536V29H106.955ZM111.463 25.0455L113.624 29H111.859L109.737 25.0455H111.463ZM116.34 20.2727V29H114.759V20.2727H116.34ZM118.052 29V20.2727H121.325C121.995 20.2727 122.558 20.3977 123.012 20.6477C123.47 20.8977 123.815 21.2415 124.048 21.679C124.284 22.1136 124.402 22.608 124.402 23.1619C124.402 23.7216 124.284 24.2187 124.048 24.6534C123.812 25.0881 123.464 25.4304 123.004 25.6804C122.544 25.9276 121.977 26.0511 121.304 26.0511H119.135V24.7514H121.091C121.483 24.7514 121.804 24.6832 122.054 24.5469C122.304 24.4105 122.488 24.223 122.608 23.9844C122.73 23.7457 122.791 23.4716 122.791 23.1619C122.791 22.8523 122.73 22.5795 122.608 22.3438C122.488 22.108 122.302 21.9247 122.049 21.794C121.799 21.6605 121.477 21.5938 121.082 21.5938H119.633V29H118.052ZM125.391 21.598V20.2727H132.354V21.598H129.657V29H128.089V21.598H125.391Z" fill="white"/>
<path fill-rule="evenodd" clip-rule="evenodd" d="M27 13H51V37H27V13ZM41.8594 34.4219C42.7045 34.8536 43.8427 35.0078 44.8594 35.0078C45.7359 35.0078 46.8717 34.8939 47.7656 34.3328C48.1453 34.0844 48.4688 33.7703 48.6562 33.3484C48.8438 32.9266 48.9891 32.4578 48.9891 31.8484C48.9848 29.9195 47.6161 29.2802 46.2656 28.6609C46.1849 28.6242 46.0908 28.5845 45.9883 28.5412C45.3131 28.2561 44.2734 27.8171 44.2734 27.0625C44.2734 26.3622 45.0614 26.0064 46.0641 26.0031C46.8459 26.0031 47.8969 26.2577 48.5484 26.7363V24.5331C47.6686 24.1952 46.7466 24.1319 45.9234 24.13C43.6148 24.13 41.8144 25.0825 41.7984 27.2612C41.8214 28.907 42.7978 29.6256 44.2359 30.3081C44.3432 30.3567 44.463 30.4071 44.5897 30.4604C45.3886 30.7967 46.4673 31.2508 46.4766 32.0988C46.4423 33.0161 45.3244 33.1558 44.6766 33.1628C43.6659 33.1628 42.5972 32.7789 41.8594 32.1719V34.4219ZM40.9219 26.3125H37.9219V34.8906H35.5312V26.3125H32.5312V24.3906H40.9219V26.3125Z" fill="white"/>
</svg>
