<svg width="160" height="50" viewBox="0 0 160 50" fill="none" xmlns="http://www.w3.org/2000/svg">
<path d="M61.6974 29L59.2344 20.2727H60.9347L62.5071 26.6861H62.5881L64.267 20.2727H65.8139L67.4972 26.6903H67.5739L69.1463 20.2727H70.8466L68.3835 29H66.8239L65.0767 22.8764H65.0085L63.2571 29H61.6974ZM79.2724 24.6364C79.2724 25.5767 79.0962 26.3821 78.744 27.0526C78.3945 27.7202 77.9173 28.2315 77.3121 28.5866C76.7099 28.9418 76.0266 29.1193 75.2624 29.1193C74.4982 29.1193 73.8136 28.9418 73.2085 28.5866C72.6062 28.2287 72.1289 27.7159 71.7766 27.0483C71.4272 26.3778 71.2525 25.5739 71.2525 24.6364C71.2525 23.696 71.4272 22.892 71.7766 22.2244C72.1289 21.554 72.6062 21.0412 73.2085 20.6861C73.8136 20.331 74.4982 20.1534 75.2624 20.1534C76.0266 20.1534 76.7099 20.331 77.3121 20.6861C77.9173 21.0412 78.3945 21.554 78.744 22.2244C79.0962 22.892 79.2724 23.696 79.2724 24.6364ZM77.6829 24.6364C77.6829 23.9744 77.5792 23.4162 77.3718 22.9616C77.1673 22.5043 76.8832 22.1591 76.5195 21.9261C76.1559 21.6903 75.7369 21.5724 75.2624 21.5724C74.788 21.5724 74.369 21.6903 74.0053 21.9261C73.6417 22.1591 73.3562 22.5043 73.1488 22.9616C72.9442 23.4162 72.842 23.9744 72.842 24.6364C72.842 25.2983 72.9442 25.858 73.1488 26.3153C73.3562 26.7699 73.6417 27.1151 74.0053 27.3509C74.369 27.5838 74.788 27.7003 75.2624 27.7003C75.7369 27.7003 76.1559 27.5838 76.5195 27.3509C76.8832 27.1151 77.1673 26.7699 77.3718 26.3153C77.5792 25.858 77.6829 25.2983 77.6829 24.6364ZM80.767 29V20.2727H84.0398C84.7102 20.2727 85.2727 20.3892 85.7273 20.6222C86.1847 20.8551 86.5298 21.1818 86.7628 21.6023C86.9986 22.0199 87.1165 22.5071 87.1165 23.0639C87.1165 23.6236 86.9972 24.1094 86.7585 24.5213C86.5227 24.9304 86.1747 25.2472 85.7145 25.4716C85.2543 25.6932 84.6889 25.804 84.0185 25.804H81.6875V24.4915H83.8054C84.1974 24.4915 84.5185 24.4375 84.7685 24.3295C85.0185 24.2187 85.2031 24.0582 85.3224 23.848C85.4446 23.6349 85.5057 23.3736 85.5057 23.0639C85.5057 22.7543 85.4446 22.4901 85.3224 22.2713C85.2003 22.0497 85.0142 21.8821 84.7642 21.7685C84.5142 21.652 84.1918 21.5938 83.7969 21.5938H82.348V29H80.767ZM85.2756 25.0455L87.4361 29H85.6719L83.5497 25.0455H85.2756ZM91.5291 29H88.5717V20.2727H91.5888C92.4553 20.2727 93.1996 20.4474 93.8217 20.7969C94.4467 21.1435 94.9268 21.642 95.2621 22.2926C95.5973 22.9432 95.7649 23.7216 95.7649 24.6278C95.7649 25.5369 95.5959 26.3182 95.2578 26.9716C94.9226 27.625 94.4382 28.1264 93.8047 28.4759C93.174 28.8253 92.4155 29 91.5291 29ZM90.1527 27.6321H91.4524C92.0604 27.6321 92.5675 27.5213 92.9737 27.2997C93.38 27.0753 93.6854 26.7415 93.8899 26.2983C94.0945 25.8523 94.1967 25.2955 94.1967 24.6278C94.1967 23.9602 94.0945 23.4062 93.8899 22.9659C93.6854 22.5227 93.3828 22.1918 92.9822 21.973C92.5845 21.7514 92.0902 21.6406 91.4993 21.6406H90.1527V27.6321ZM97.267 29V20.2727H100.54C101.21 20.2727 101.773 20.3977 102.227 20.6477C102.685 20.8977 103.03 21.2415 103.263 21.679C103.499 22.1136 103.616 22.608 103.616 23.1619C103.616 23.7216 103.499 24.2187 103.263 24.6534C103.027 25.0881 102.679 25.4304 102.219 25.6804C101.759 25.9276 101.192 26.0511 100.518 26.0511H98.3494V24.7514H100.305C100.697 24.7514 101.018 24.6832 101.268 24.5469C101.518 24.4105 101.703 24.223 101.822 23.9844C101.945 23.7457 102.006 23.4716 102.006 23.1619C102.006 22.8523 101.945 22.5795 101.822 22.3438C101.703 22.108 101.517 21.9247 101.264 21.794C101.014 21.6605 100.692 21.5938 100.297 21.5938H98.848V29H97.267ZM104.99 29V20.2727H108.262C108.933 20.2727 109.495 20.3892 109.95 20.6222C110.407 20.8551 110.752 21.1818 110.985 21.6023C111.221 22.0199 111.339 22.5071 111.339 23.0639C111.339 23.6236 111.22 24.1094 110.981 24.5213C110.745 24.9304 110.397 25.2472 109.937 25.4716C109.477 25.6932 108.912 25.804 108.241 25.804H105.91V24.4915H108.028C108.42 24.4915 108.741 24.4375 108.991 24.3295C109.241 24.2187 109.426 24.0582 109.545 23.848C109.667 23.6349 109.728 23.3736 109.728 23.0639C109.728 22.7543 109.667 22.4901 109.545 22.2713C109.423 22.0497 109.237 21.8821 108.987 21.7685C108.737 21.652 108.414 21.5938 108.02 21.5938H106.571V29H104.99ZM109.498 25.0455L111.659 29H109.895L107.772 25.0455H109.498ZM112.794 29V20.2727H118.471V21.598H114.375V23.9673H118.176V25.2926H114.375V27.6747H118.505V29H112.794ZM124.826 22.6719C124.787 22.2997 124.619 22.0099 124.324 21.8026C124.031 21.5952 123.65 21.4915 123.181 21.4915C122.852 21.4915 122.569 21.5412 122.333 21.6406C122.098 21.7401 121.917 21.875 121.792 22.0455C121.667 22.2159 121.603 22.4105 121.6 22.6293C121.6 22.8111 121.642 22.9687 121.724 23.1023C121.809 23.2358 121.924 23.3494 122.069 23.4432C122.214 23.5341 122.375 23.6108 122.551 23.6733C122.727 23.7358 122.904 23.7884 123.083 23.831L123.902 24.0355C124.231 24.1122 124.548 24.2159 124.852 24.3466C125.159 24.4773 125.433 24.642 125.674 24.8409C125.919 25.0398 126.112 25.2798 126.254 25.5611C126.396 25.8423 126.467 26.1719 126.467 26.5497C126.467 27.0611 126.336 27.5114 126.075 27.9006C125.814 28.2869 125.436 28.5895 124.941 28.8082C124.45 29.0241 123.855 29.1321 123.156 29.1321C122.477 29.1321 121.887 29.027 121.387 28.8168C120.89 28.6065 120.501 28.2997 120.22 27.8963C119.941 27.4929 119.791 27.0014 119.768 26.4219H121.324C121.346 26.7259 121.44 26.9787 121.605 27.1804C121.77 27.3821 121.984 27.5327 122.248 27.6321C122.515 27.7315 122.814 27.7812 123.143 27.7812C123.487 27.7812 123.788 27.7301 124.047 27.6278C124.308 27.5227 124.512 27.3778 124.66 27.1932C124.808 27.0057 124.883 26.7869 124.886 26.5369C124.883 26.3097 124.816 26.1222 124.686 25.9744C124.555 25.8239 124.372 25.6989 124.136 25.5994C123.903 25.4972 123.63 25.4062 123.318 25.3267L122.325 25.071C121.606 24.8864 121.038 24.6065 120.62 24.2315C120.206 23.8537 119.998 23.3523 119.998 22.7273C119.998 22.2131 120.137 21.7628 120.416 21.3764C120.697 20.9901 121.079 20.6903 121.562 20.4773C122.045 20.2614 122.592 20.1534 123.203 20.1534C123.822 20.1534 124.365 20.2614 124.831 20.4773C125.299 20.6903 125.667 20.9872 125.934 21.3679C126.201 21.7457 126.339 22.1804 126.348 22.6719H124.826ZM132.619 22.6719C132.58 22.2997 132.412 22.0099 132.116 21.8026C131.824 21.5952 131.443 21.4915 130.974 21.4915C130.645 21.4915 130.362 21.5412 130.126 21.6406C129.891 21.7401 129.71 21.875 129.585 22.0455C129.46 22.2159 129.396 22.4105 129.393 22.6293C129.393 22.8111 129.435 22.9687 129.517 23.1023C129.602 23.2358 129.717 23.3494 129.862 23.4432C130.007 23.5341 130.168 23.6108 130.344 23.6733C130.52 23.7358 130.697 23.7884 130.876 23.831L131.695 24.0355C132.024 24.1122 132.341 24.2159 132.645 24.3466C132.952 24.4773 133.226 24.642 133.467 24.8409C133.712 25.0398 133.905 25.2798 134.047 25.5611C134.189 25.8423 134.26 26.1719 134.26 26.5497C134.26 27.0611 134.129 27.5114 133.868 27.9006C133.607 28.2869 133.229 28.5895 132.734 28.8082C132.243 29.0241 131.648 29.1321 130.949 29.1321C130.27 29.1321 129.68 29.027 129.18 28.8168C128.683 28.6065 128.294 28.2997 128.013 27.8963C127.734 27.4929 127.584 27.0014 127.561 26.4219H129.116C129.139 26.7259 129.233 26.9787 129.398 27.1804C129.563 27.3821 129.777 27.5327 130.041 27.6321C130.308 27.7315 130.607 27.7812 130.936 27.7812C131.28 27.7812 131.581 27.7301 131.839 27.6278C132.101 27.5227 132.305 27.3778 132.453 27.1932C132.601 27.0057 132.676 26.7869 132.679 26.5369C132.676 26.3097 132.609 26.1222 132.479 25.9744C132.348 25.8239 132.165 25.6989 131.929 25.5994C131.696 25.4972 131.423 25.4062 131.111 25.3267L130.118 25.071C129.399 24.8864 128.831 24.6065 128.413 24.2315C127.999 23.8537 127.791 23.3523 127.791 22.7273C127.791 22.2131 127.93 21.7628 128.209 21.3764C128.49 20.9901 128.872 20.6903 129.355 20.4773C129.838 20.2614 130.385 20.1534 130.996 20.1534C131.615 20.1534 132.158 20.2614 132.624 20.4773C133.092 20.6903 133.46 20.9872 133.727 21.3679C133.994 21.7457 134.132 22.1804 134.141 22.6719H132.619Z" fill="white"/>
<g clip-path="url(#clip0_496_234)">
<path d="M26.8601 20.9584C25.8031 23.3325 25.7123 26.0289 26.6072 28.4696C27.5021 30.9103 29.3115 32.9011 31.6477 34.0154L26.8601 20.9584ZM40.9741 31.0309C42.2176 27.4662 42.8187 25.2071 42.7772 24.2537C42.7358 23.3004 42.2798 22.1812 41.4093 20.8962C40.228 18.8444 41.658 17.5387 42.715 17.6009C41.6426 16.6337 40.3718 15.9093 38.9903 15.4776C37.6088 15.0459 36.1495 14.9172 34.7132 15.1005C33.2768 15.2837 31.8975 15.7745 30.6705 16.539C29.4435 17.3034 28.398 18.3233 27.6062 19.5283C28.7668 19.5283 29.8653 19.4869 30.9016 19.404C31.0087 19.3792 31.1214 19.3981 31.2146 19.4564C31.3079 19.5147 31.3742 19.6077 31.399 19.7149C31.4237 19.8221 31.4048 19.9347 31.3465 20.028C31.2882 20.1212 31.1953 20.1875 31.0881 20.2123L29.9067 20.3366L33.513 31.1553L35.6891 24.5646L34.1347 20.2744L33.1399 20.2123C33.0327 20.2123 32.9299 20.1697 32.8541 20.0939C32.7783 20.0181 32.7358 19.9153 32.7358 19.8081C32.7358 19.7009 32.7783 19.5981 32.8541 19.5224C32.9299 19.4466 33.0327 19.404 33.1399 19.404C34.8808 19.5698 36.6218 19.5698 38.3627 19.404C38.4699 19.3792 38.5825 19.3981 38.6758 19.4564C38.7691 19.5147 38.8354 19.6077 38.8601 19.7149C38.8848 19.8221 38.866 19.9347 38.8077 20.028C38.7494 20.1212 38.6564 20.1875 38.5492 20.2123L37.3679 20.2744L40.9741 31.0309ZM36.1865 25.8703L33.1399 34.575C35.1553 35.1803 37.3051 35.1369 39.2953 34.4506L36.1865 25.8703ZM44.1451 24.689C44.7668 23.0309 44.9741 21.5387 44.7668 20.2123C45.9998 22.4979 46.3002 25.163 45.6065 27.6606C44.9127 30.1581 43.2774 32.2985 41.0363 33.6423L44.1451 24.689ZM36.0622 36.9998C39.2393 36.9834 42.2803 35.7076 44.5182 33.4522C46.7561 31.1969 48.0082 28.1461 48 24.9689C47.9917 21.7917 46.7238 18.7475 44.4743 16.5037C42.2247 14.26 39.1772 13 36 13C32.8228 13 29.7753 14.26 27.5257 16.5037C25.2762 18.7475 24.0083 21.7917 24 24.9689C23.9918 28.1461 25.2439 31.1969 27.4818 33.4522C29.7197 35.7076 32.7607 36.9834 35.9378 36.9998H36.0622ZM35.9378 36.3159C32.942 36.2994 30.075 35.0957 27.9654 32.9686C25.8558 30.8416 24.6758 27.9647 24.684 24.9689C24.6922 21.9731 25.8881 19.1028 28.0093 16.9874C30.1306 14.8719 33.0042 13.6839 36 13.6839C38.9958 13.6839 41.8694 14.8719 43.9907 16.9874C46.1119 19.1028 47.3078 21.9731 47.316 24.9689C47.3242 27.9647 46.1442 30.8416 44.0346 32.9686C41.925 35.0957 39.058 36.2994 36.0622 36.3159H35.9378Z" fill="white"/>
</g>
<defs>
<clipPath id="clip0_496_234">
<rect width="24" height="24" fill="white" transform="translate(24 13)"/>
</clipPath>
</defs>
</svg>
