<svg viewBox="0 0 53 53" fill="none" xmlns="http://www.w3.org/2000/svg">
<rect x="1.80616" y="1.54029" width="49.4855" height="49.4855" rx="24.7428" fill="#222C30"/>
<rect x="1.80616" y="1.54029" width="49.4855" height="49.4855" rx="24.7428" stroke="#222C30" stroke-width="2.6045"/>
<path d="M27.6475 20.4227C27.6475 19.8159 27.1556 19.324 26.5487 19.324C25.9419 19.324 25.45 19.8159 25.45 20.4227V25.1841H20.6886C20.0818 25.1841 19.5898 25.676 19.5898 26.2829C19.5898 26.8897 20.0818 27.3816 20.6886 27.3816H25.45V32.143C25.45 32.7498 25.9419 33.2418 26.5487 33.2418C27.1556 33.2418 27.6475 32.7498 27.6475 32.143V27.3816H32.4089C33.0157 27.3816 33.5076 26.8897 33.5076 26.2829C33.5076 25.676 33.0157 25.1841 32.4089 25.1841H27.6475V20.4227Z" fill="#C7D8DA"/>
</svg>
