<svg width="164" height="161" viewBox="0 0 164 161" fill="none" xmlns="http://www.w3.org/2000/svg">
<g id="Frame" clip-path="url(#clip0_207_2)">
<g id="Group 9">
<g id="Group 7">
<path id="Ellipse 4" d="M81.5237 161C126.548 161 163.047 124.959 163.047 80.5C163.047 36.0411 126.548 0 81.5237 0C36.4994 0 0 36.0411 0 80.5C0 124.959 36.4994 161 81.5237 161Z" fill="#3B4A4F"/>
<path id="Ellipse 5" d="M81.5239 126C106.972 126 127.603 105.629 127.603 80.5C127.603 55.371 106.972 35 81.5239 35C56.0754 35 35.4453 55.371 35.4453 80.5C35.4453 105.629 56.0754 126 81.5239 126Z" fill="#222C30"/>
<g id="LOGO">
<path id="Vector" fill-rule="evenodd" clip-rule="evenodd" d="M70.4055 63.978C68.3776 64.3269 66.8025 65.1976 65.6289 66.6185C65.1078 67.2493 64.9812 67.4779 63.3243 70.7803C62.2042 73.0129 61.8044 73.8777 61.782 74.117C61.7405 74.5617 61.9763 74.9594 62.4095 75.1753L62.7335 75.3368L79.3772 75.3343C92.9819 75.3322 96.1035 75.3143 96.4733 75.2359C97.1694 75.0884 97.7095 74.7921 98.2418 74.2657C98.6856 73.8268 98.7822 73.6668 99.6322 71.9643C100.135 70.9579 101.075 69.0767 101.722 67.7839C102.368 66.491 102.916 65.3226 102.938 65.1874C102.99 64.8686 102.753 64.375 102.434 64.1387L102.198 63.9636L86.3924 63.9552C77.6995 63.9505 70.5054 63.9608 70.4055 63.978ZM74.8019 78.7094C73.9736 78.81 73.7313 78.8627 73.1051 79.0789C71.5696 79.609 70.3151 80.5676 69.4076 81.9044C69.1731 82.2498 67.5354 85.4588 65.9492 88.6807C65.7571 89.0711 65.7184 89.2339 65.7184 89.652C65.7184 90.1499 65.7262 90.1697 66.6014 91.9123C67.0871 92.8792 68.3671 95.4339 69.4458 97.5893C70.7169 100.129 71.4666 101.549 71.5764 101.625C71.7864 101.771 72.355 101.779 72.556 101.64C72.7118 101.532 72.8374 101.289 76.0204 94.926C78.1342 90.7005 78.1703 90.6416 78.8713 90.2734L79.2346 90.0825L84.067 90.0453C89.4409 90.0041 89.0666 90.0388 89.9168 89.5022C90.7638 88.9676 90.8709 88.8083 92.2774 85.9925C92.928 84.6901 93.8669 82.8173 94.3638 81.8307C95.1807 80.2088 95.2643 80.0075 95.2351 79.731C95.1946 79.3471 94.9342 78.9629 94.6038 78.7993C94.3655 78.6813 93.7487 78.6729 84.7937 78.6649C79.538 78.6602 75.0417 78.6802 74.8019 78.7094Z" fill="#E1EBEC"/>
<path id="Vector_2" fill-rule="evenodd" clip-rule="evenodd" d="M70.1371 64.0718C68.7348 64.2743 67.0356 65.1549 66.0365 66.1971C65.2785 66.9878 65.2327 67.0678 63.0311 71.4474C61.9235 73.6506 61.8301 73.8667 61.8301 74.2254C61.8301 74.5565 61.863 74.6513 62.0515 74.8633C62.5123 75.3815 61.0254 75.3428 79.5974 75.3197L96.3109 75.2989L96.7689 75.1393C97.4145 74.9144 97.7748 74.6882 98.2496 74.2099C98.6111 73.8456 98.785 73.5506 99.6527 71.8293C102.391 66.3979 102.837 65.4701 102.866 65.1476C102.903 64.7456 102.729 64.3882 102.386 64.1624L102.139 63.9995L86.3265 64.0085C77.6296 64.0134 70.3443 64.0419 70.1371 64.0718ZM74.0383 78.8531C73.4268 78.9848 72.7134 79.227 72.2216 79.4697C71.2545 79.9469 70.0142 81.03 69.4497 81.8901C69.2899 82.1337 68.5037 83.6407 67.7027 85.2391C65.5356 89.5633 65.7172 89.1587 65.7222 89.652C65.7262 90.0613 65.7877 90.2048 66.9673 92.5581C67.6498 93.9197 68.9271 96.4706 69.8058 98.2268C70.6845 99.983 71.4706 101.479 71.5525 101.552C71.6345 101.624 71.8268 101.698 71.9797 101.717C72.4202 101.77 72.6611 101.571 73.0054 100.871C73.1671 100.541 74.3597 98.1557 75.6556 95.5693C77.8907 91.1084 78.03 90.8514 78.3685 90.5653C78.9998 90.0318 78.8439 90.047 83.6979 90.0443C86.0788 90.043 88.2525 90.0133 88.5282 89.9782C89.2301 89.8889 90.0191 89.4927 90.5417 88.967C90.9748 88.5313 90.787 88.8858 94.3035 81.8666C95.0765 80.3235 95.148 80.1468 95.1459 79.7857C95.1441 79.4851 95.1023 79.3361 94.9708 79.1606C94.6085 78.6773 95.3499 78.7088 84.4915 78.7147C75.1954 78.7198 74.6221 78.7274 74.0383 78.8531Z" fill="#E1EBEC"/>
</g>
</g>
<g id="Group 8" class="texto-selo">
<path id="F" d="M67.2155 139.252L64.7808 148.338L58.9598 146.778L59.3294 145.399L63.5043 146.518L64.1654 144.051L60.3898 143.039L60.7594 141.66L64.535 142.671L65.5695 138.811L67.2155 139.252Z" fill="#F3F7F8"/>
<path id="e" d="M58.2348 136.534L54.3918 145.12L48.7979 142.641L49.3814 141.338L53.4173 143.125L54.4608 140.794L50.7147 139.135L51.2981 137.832L55.0442 139.491L56.0932 137.147L52.0237 135.345L52.6071 134.041L58.2348 136.534Z" fill="#F3F7F8"/>
<path id="l" d="M50.0403 132.659L44.8875 140.53L43.455 139.606L47.8251 132.932L44.3421 130.688L45.1246 129.493L50.0403 132.659Z" fill="#F3F7F8"/>
<path id="i" d="M32.9479 131.713L39.2779 124.755L40.55 125.889L34.2199 132.847L32.9479 131.713Z" fill="#F3F7F8"/>
<path id="p" d="M35.2469 120.887L27.9009 126.763L25.6646 124.034C25.2064 123.476 24.9273 122.923 24.8272 122.375C24.725 121.826 24.7784 121.307 24.9876 120.818C25.1923 120.329 25.5277 119.898 25.9941 119.525C26.4652 119.148 26.9643 118.911 27.4913 118.815C28.0182 118.719 28.5442 118.779 29.0692 118.994C29.5916 119.211 30.083 119.601 30.543 120.162L32.0252 121.97L30.9312 122.845L29.5947 121.214C29.3267 120.888 29.05 120.666 28.7643 120.55C28.4787 120.433 28.1946 120.406 27.9123 120.467C27.628 120.525 27.3555 120.659 27.0948 120.868C26.8341 121.076 26.6463 121.311 26.5314 121.571C26.4144 121.829 26.3873 122.108 26.4502 122.406C26.5086 122.704 26.6727 123.019 26.9425 123.348L27.9326 124.555L34.1667 119.569L35.2469 120.887Z" fill="#F3F7F8"/>
<path id="e_2" d="M29.1391 112.989L20.963 117.64L17.8706 112.361L19.112 111.655L21.3433 115.464L23.5629 114.201L21.492 110.666L22.7337 109.959L24.8046 113.494L27.0362 112.225L24.7865 108.385L26.0281 107.678L29.1391 112.989Z" fill="#F3F7F8"/>
<path id="U" d="M11.1184 92.672L10.7553 91.0074L16.7732 89.7604C17.4328 89.6235 18.0471 89.6586 18.6156 89.8659C19.1834 90.0708 19.6692 90.4235 20.0732 90.9242C20.4738 91.426 20.7556 92.0512 20.9188 92.7989C21.0824 93.5498 21.0857 94.234 20.9288 94.8514C20.769 95.4691 20.4722 95.9838 20.0387 96.3957C19.6048 96.8084 19.0583 97.0823 18.3986 97.2193L12.3808 98.4662L12.0179 96.8016L17.8965 95.5825C18.2803 95.5032 18.6039 95.3486 18.8672 95.119C19.1299 94.886 19.3129 94.5986 19.4168 94.2548C19.5174 93.9121 19.5219 93.5293 19.4301 93.1071C19.3379 92.6859 19.1746 92.3377 18.9395 92.0646C18.7009 91.7884 18.4132 91.5985 18.0769 91.4929C17.7406 91.3872 17.3804 91.3746 16.9967 91.454L11.1184 92.672Z" fill="#F3F7F8"/>
<path id="r" d="M19.7356 87.2018L10.3398 87.6596L10.142 84.1374C10.1016 83.4153 10.193 82.8041 10.4163 82.3028C10.6395 81.7984 10.9703 81.4098 11.4089 81.1371C11.8443 80.8614 12.3617 80.709 12.9612 80.6798C13.5637 80.6505 14.0939 80.7534 14.5518 80.9886C15.0065 81.2209 15.3685 81.5788 15.6379 82.0624C15.9044 82.546 16.0578 83.1486 16.0983 83.8699L16.2392 86.3788L14.8262 86.4474L14.6981 84.1686C14.6745 83.7461 14.5969 83.4037 14.4656 83.1403C14.3313 82.8771 14.1473 82.6868 13.9137 82.5694C13.6769 82.4491 13.3919 82.3971 13.0585 82.4134C12.7251 82.4295 12.4444 82.5092 12.2162 82.6521C11.9849 82.7956 11.8159 83.004 11.7085 83.2796C11.5983 83.5544 11.5552 83.9042 11.5789 84.3298L11.6665 85.8886L19.6401 85.5001L19.7356 87.2018ZM15.2057 82.5571L19.3326 80.0246L19.4392 81.9232L15.31 84.4144L15.2057 82.5571Z" fill="#F3F7F8"/>
<path id="b" d="M20.4486 77.2269L11.0952 76.2256L11.4646 72.6434C11.5343 71.9672 11.6988 71.4166 11.9581 70.9917C12.2147 70.5634 12.5371 70.2576 12.9254 70.0744C13.314 69.8881 13.7397 69.8198 14.2026 69.8693C14.5831 69.91 14.9014 70.0181 15.1572 70.1933C15.4101 70.3682 15.6075 70.588 15.7496 70.8525C15.8916 71.1172 15.9835 71.4057 16.0252 71.7182L16.1164 71.7279C16.1689 71.3979 16.3038 71.0905 16.521 70.8058C16.7353 70.5178 17.02 70.2941 17.3751 70.1351C17.7301 69.976 18.1451 69.9218 18.6201 69.9727C19.1042 70.0246 19.5275 70.1884 19.8901 70.4643C20.2495 70.74 20.516 71.1258 20.6895 71.6217C20.8631 72.1176 20.913 72.7235 20.8392 73.4393L20.4486 77.2269ZM19.2077 75.3803L19.3956 73.5573C19.459 72.942 19.3875 72.4863 19.1811 72.19C18.9719 71.8905 18.6815 71.7209 18.31 71.6811C18.033 71.6513 17.7762 71.6932 17.5398 71.8065C17.3003 71.9194 17.1037 72.0955 16.9497 72.3346C16.7928 72.5734 16.6961 72.8679 16.66 73.2182L16.4673 75.0869L19.2077 75.3803ZM15.248 74.9563L15.4208 73.2796C15.451 72.9871 15.4248 72.718 15.3425 72.472C15.2571 72.2257 15.1223 72.0249 14.9382 71.8697C14.7514 71.7111 14.521 71.6172 14.247 71.5879C13.8847 71.5491 13.573 71.645 13.3122 71.8758C13.0517 72.1035 12.8957 72.4671 12.8442 72.9667L12.6675 74.6801L15.248 74.9563Z" fill="#F3F7F8"/>
<path id="a" d="M21.7738 67.6832L21.303 69.4402L13.0738 63.8066L13.6182 61.7746L23.5629 61.006L23.0922 62.7629L15.219 63.2544L15.2 63.3254L21.7738 67.6832ZM18.2266 66.6709L19.5105 61.8793L20.8327 62.2336L19.5488 67.0251L18.2266 66.6709Z" fill="#F3F7F8"/>
<path id="n" d="M18.4756 49.2837L27.0766 53.0931L26.4573 54.4765L18.7879 55.9275L18.756 55.9988L24.6147 58.5935L23.9185 60.1489L15.3175 56.3395L15.9404 54.9476L23.6122 53.5028L23.646 53.4274L17.7831 50.8307L18.4756 49.2837Z" fill="#F3F7F8"/>
<path id="e_3" d="M27.6033 50.2336L19.6951 45.1395L23.0464 40.0208L24.2473 40.7944L21.8294 44.4873L23.9764 45.8703L26.2206 42.4425L27.4215 43.2161L25.1773 46.6439L27.3358 48.0344L29.7738 44.3107L30.9747 45.0843L27.6033 50.2336Z" fill="#F3F7F8"/>
<path id="k" d="M32.8246 42.7564L25.8019 36.4976L26.9486 35.2371L30.1754 38.1129L30.2526 38.0279L29.4956 32.4374L30.8958 30.8984L31.599 36.3978L37.9401 37.1333L36.5615 38.6487L31.6623 38.0414L31.8797 39.6317L33.9714 41.4959L32.8246 42.7564Z" fill="#F3F7F8"/>
<path id="D" d="M53.7999 27.5099L50.9523 28.9426L46.6387 20.583L49.5438 19.1214C50.3781 18.7017 51.1811 18.5085 51.9529 18.5418C52.726 18.571 53.4347 18.816 54.079 19.2767C54.7234 19.7375 55.2695 20.4019 55.7174 21.27C56.1668 22.1407 56.3902 22.971 56.3876 23.7606C56.3878 24.5489 56.1692 25.2639 55.7319 25.9055C55.2974 26.5457 54.6534 27.0805 53.7999 27.5099ZM51.7985 26.8665L53.0499 26.2368C53.6353 25.9423 54.0688 25.5905 54.3505 25.1814C54.6307 24.7697 54.7598 24.302 54.7377 23.7784C54.7142 23.252 54.5375 22.6691 54.2075 22.0297C53.8775 21.3902 53.5052 20.9091 53.0906 20.5864C52.6746 20.261 52.2197 20.0905 51.7259 20.075C51.2334 20.0555 50.7027 20.1888 50.1337 20.4751L48.8371 21.1274L51.7985 26.8665Z" fill="#F3F7F8"/>
<path id="e_4" d="M60.7333 24.3838L57.793 15.4482L63.6187 13.5791L64.0652 14.936L59.8621 16.2845L60.6604 18.7104L64.5616 17.4587L65.0081 18.8156L61.1069 20.0673L61.9094 22.5063L66.1474 21.1465L66.5939 22.5035L60.7333 24.3838Z" fill="#F3F7F8"/>
<path id="s" d="M73.4458 14.3191C73.3399 13.9296 73.1119 13.6491 72.7619 13.4776C72.4149 13.3057 71.9918 13.2587 71.4926 13.3368C71.1417 13.3917 70.8491 13.4917 70.615 13.6367C70.3809 13.7818 70.2118 13.9555 70.1078 14.1577C70.0038 14.36 69.9689 14.5777 70.0032 14.811C70.0343 15.0045 70.105 15.1654 70.2156 15.2938C70.3291 15.4217 70.471 15.5235 70.6413 15.5992C70.8112 15.6718 70.9952 15.7267 71.1934 15.7639C71.3917 15.801 71.5897 15.8274 71.7876 15.8429L72.6938 15.9244C73.0579 15.9511 73.4129 16.0087 73.7589 16.0972C74.108 16.1852 74.428 16.3149 74.7191 16.4863C75.0133 16.6572 75.26 16.8805 75.4593 17.1562C75.6585 17.4319 75.7904 17.7708 75.8549 18.1729C75.9422 18.7171 75.8799 19.2181 75.668 19.6759C75.4556 20.1306 75.1049 20.5155 74.6158 20.8307C74.1293 21.1423 73.5139 21.3563 72.7697 21.4727C72.0466 21.5858 71.4009 21.5721 70.8326 21.4317C70.2672 21.2907 69.8004 21.029 69.432 20.6465C69.0667 20.2635 68.8224 19.7656 68.6993 19.1525L70.3557 18.8935C70.4318 19.2132 70.5748 19.4667 70.7847 19.6539C70.9946 19.8412 71.2487 19.9657 71.547 20.0275C71.8484 20.0888 72.1745 20.0921 72.5255 20.0372C72.8915 19.9799 73.2035 19.8754 73.4614 19.7234C73.7217 19.5681 73.9148 19.3798 74.0406 19.1587C74.1659 18.9345 74.2088 18.6892 74.1691 18.4226C74.1273 18.1812 74.0242 17.9928 73.8598 17.8573C73.6949 17.7188 73.4785 17.6163 73.2104 17.5498C72.9448 17.4797 72.6389 17.4284 72.2925 17.3958L71.1915 17.289C70.3946 17.2122 69.7417 17.009 69.233 16.6795C68.7268 16.3464 68.4203 15.8473 68.3136 15.1822C68.2259 14.6349 68.2972 14.1325 68.5278 13.6749C68.7613 13.2169 69.1171 12.8343 69.595 12.5271C70.0725 12.2169 70.6364 12.0109 71.2869 11.9092C71.9464 11.806 72.5427 11.8305 73.0757 11.9827C73.6113 12.1314 74.0537 12.3861 74.4031 12.7468C74.752 13.1044 74.9729 13.5441 75.0659 14.0657L73.4458 14.3191Z" fill="#F3F7F8"/>
<path id="e_5" d="M79.334 20.6154V11.2085H85.4522V12.637H81.0381V15.1909H85.1353V16.6193H81.0381V19.1869H85.4889V20.6154H79.334Z" fill="#F3F7F8"/>
<path id="n_2" d="M96.8539 12.6481L95.3641 21.9363L93.8666 21.7021L90.5021 14.6905L90.425 14.6785L89.4102 21.0051L87.7266 20.7418L89.2164 11.4536L90.723 11.6893L94.0822 18.7046L94.1639 18.7174L95.1794 12.3862L96.8539 12.6481Z" fill="#F3F7F8"/>
<path id="v" d="M101.489 13.8533L101.505 21.6345L101.597 21.664L106.238 15.3772L108.023 15.9498L101.925 23.8722L99.9221 23.2295L99.709 13.2822L101.489 13.8533Z" fill="#F3F7F8"/>
<path id="o" d="M115.865 24.9687C115.4 25.8694 114.833 26.5555 114.162 27.0271C113.496 27.4973 112.783 27.7559 112.025 27.8029C111.27 27.8513 110.524 27.6904 109.788 27.3202C109.052 26.95 108.481 26.4482 108.074 25.8149C107.671 25.1803 107.465 24.4579 107.455 23.6477C107.45 22.8362 107.68 21.9815 108.143 21.0835C108.608 20.1828 109.173 19.4973 109.84 19.0271C110.51 18.5555 111.223 18.2956 111.979 18.2472C112.737 18.2002 113.484 18.3618 114.22 18.732C114.956 19.1022 115.526 19.6033 115.93 20.2352C116.337 20.8685 116.543 21.5909 116.548 22.4024C116.558 23.2125 116.33 24.068 115.865 24.9687ZM114.335 24.1987C114.662 23.5646 114.838 22.9797 114.863 22.4438C114.892 21.9066 114.789 21.4383 114.554 21.039C114.32 20.637 113.975 20.3211 113.518 20.0912C113.062 19.8614 112.6 19.7713 112.133 19.821C111.668 19.868 111.222 20.0603 110.797 20.398C110.375 20.7343 110.001 21.2195 109.673 21.8535C109.346 22.4875 109.168 23.0732 109.139 23.6104C109.114 24.1462 109.218 24.6152 109.452 25.0172C109.687 25.4165 110.033 25.7311 110.49 25.9609C110.946 26.1908 111.407 26.2822 111.873 26.2352C112.339 26.1855 112.784 25.9925 113.205 25.6562C113.631 25.3186 114.007 24.8327 114.335 24.1987Z" fill="#F3F7F8"/>
<path id="l_2" d="M115.146 30.1111L120.721 22.5342L122.105 23.5276L117.377 29.9539L120.743 32.369L119.897 33.5196L115.146 30.1111Z" fill="#F3F7F8"/>
<path id="v_2" d="M130.003 29.7754L126.477 36.6979L126.545 36.7657L133.553 33.2802L134.886 34.597L125.833 38.8764L124.336 37.3983L128.673 28.4619L130.003 29.7754Z" fill="#F3F7F8"/>
<path id="e_6" d="M129.588 42.9786L137.232 37.4951L140.858 42.4231L139.697 43.2558L137.081 39.7004L135.006 41.1891L137.434 44.4892L136.273 45.3219L133.845 42.0218L131.759 43.5185L134.397 47.1035L133.236 47.9362L129.588 42.9786Z" fill="#F3F7F8"/>
<path id="d" d="M136.196 53.1564L134.734 50.3236L143.137 46.0957L144.629 48.9856C145.057 49.8156 145.257 50.6132 145.228 51.3784C145.203 52.145 144.96 52.8464 144.499 53.4827C144.039 54.1189 143.372 54.6566 142.499 55.0956C141.624 55.536 140.788 55.7526 139.992 55.7453C139.197 55.7407 138.475 55.5197 137.825 55.0821C137.177 54.6473 136.634 54.0054 136.196 53.1564ZM136.833 51.1753L137.475 52.4202C137.776 53.0026 138.133 53.4346 138.547 53.7164C138.964 53.9968 139.436 54.1276 139.964 54.1089C140.495 54.0887 141.081 53.9169 141.724 53.5935C142.367 53.2701 142.85 52.9037 143.173 52.4945C143.498 52.0839 143.668 51.6337 143.68 51.1441C143.697 50.6557 143.559 50.1286 143.267 49.5626L142.602 48.2727L136.833 51.1753Z" fill="#F3F7F8"/>
<path id="o_2" d="M145.795 64.7964C144.83 65.106 143.944 65.1909 143.137 65.051C142.334 64.913 141.649 64.5928 141.08 64.0901C140.513 63.5904 140.101 62.9493 139.843 62.1669C139.586 61.3845 139.537 60.625 139.698 59.8885C139.862 59.154 140.228 58.4965 140.794 57.9159C141.365 57.3374 142.131 56.8938 143.093 56.585C144.058 56.2754 144.942 56.1895 145.745 56.3275C146.552 56.4674 147.239 56.7872 147.806 57.2869C148.375 57.7895 148.788 58.4321 149.045 59.2145C149.303 59.9969 149.351 60.755 149.189 61.4885C149.028 62.225 148.663 62.8826 148.093 63.4611C147.526 64.0416 146.76 64.4867 145.795 64.7964ZM145.26 63.1689C145.939 62.951 146.477 62.661 146.874 62.299C147.274 61.9389 147.533 61.5344 147.649 61.0854C147.769 60.6354 147.749 60.1675 147.589 59.6818C147.429 59.196 147.167 58.8058 146.802 58.5111C146.441 58.2155 145.99 58.0369 145.451 57.9751C144.915 57.9154 144.308 57.9945 143.629 58.2125C142.949 58.4304 142.409 58.7194 142.009 59.0795C141.612 59.4415 141.354 59.8475 141.235 60.2975C141.118 60.7465 141.14 61.2139 141.299 61.6996C141.459 62.1854 141.72 62.5761 142.082 62.8717C142.446 63.1663 142.896 63.3435 143.432 63.4033C143.971 63.465 144.58 63.3869 145.26 63.1689Z" fill="#F3F7F8"/>
<path id="r_2" d="M140.594 67.7787L149.888 66.3252L150.446 69.8082C150.561 70.5218 150.533 71.1398 150.362 71.6624C150.192 72.188 149.903 72.6097 149.495 72.9277C149.091 73.2482 148.592 73.4548 147.999 73.5476C147.403 73.6408 146.865 73.5947 146.386 73.4093C145.91 73.2265 145.513 72.9089 145.196 72.4565C144.881 72.0036 144.667 71.4203 144.552 70.7068L144.154 68.226L145.552 68.0074L145.914 70.2614C145.981 70.6787 146.093 71.0113 146.251 71.2594C146.411 71.507 146.614 71.6768 146.858 71.7688C147.106 71.8633 147.394 71.8848 147.724 71.8332C148.054 71.7817 148.325 71.6727 148.537 71.5062C148.752 71.3393 148.899 71.1133 148.977 70.8284C149.059 70.5429 149.066 70.19 148.998 69.7698L148.751 68.2278L140.864 69.4613L140.594 67.7787ZM145.575 71.9184L141.732 74.8764L141.431 72.9988L145.28 70.0816L145.575 71.9184Z" fill="#F3F7F8"/>
<path id="F_2" d="M141.567 87.0747L150.861 88.5283L149.907 94.4785L148.495 94.2578L149.18 89.9901L146.657 89.5955L146.038 93.455L144.626 93.2343L145.245 89.3748L141.297 88.7573L141.567 87.0747Z" fill="#F3F7F8"/>
<path id="r_3" d="M140.994 95.6772L149.952 98.551L148.849 101.902C148.623 102.588 148.314 103.126 147.922 103.514C147.529 103.906 147.077 104.152 146.567 104.252C146.059 104.356 145.519 104.316 144.948 104.133C144.373 103.948 143.915 103.666 143.573 103.286C143.232 102.91 143.024 102.45 142.949 101.904C142.877 101.36 142.953 100.745 143.179 100.059L143.965 97.672L145.312 98.1042L144.598 100.273C144.466 100.674 144.413 101.02 144.44 101.312C144.469 101.604 144.572 101.846 144.747 102.038C144.925 102.233 145.173 102.382 145.49 102.483C145.808 102.585 146.1 102.61 146.366 102.557C146.634 102.505 146.869 102.369 147.07 102.151C147.274 101.933 147.442 101.622 147.575 101.218L148.063 99.7347L140.462 97.2959L140.994 95.6772ZM143.534 101.595L138.748 102.505L139.342 100.699L144.116 99.8284L143.534 101.595Z" fill="#F3F7F8"/>
<path id="o_3" d="M138.361 113.832C137.455 113.377 136.767 112.818 136.295 112.156C135.825 111.497 135.569 110.792 135.526 110.041C135.482 109.292 135.648 108.551 136.026 107.819C136.404 107.087 136.913 106.518 137.554 106.11C138.197 105.707 138.926 105.498 139.743 105.484C140.561 105.474 141.422 105.696 142.325 106.15C143.23 106.606 143.918 107.163 144.388 107.821C144.859 108.483 145.117 109.189 145.161 109.937C145.204 110.689 145.037 111.431 144.659 112.163C144.281 112.895 143.773 113.463 143.133 113.868C142.492 114.276 141.763 114.485 140.944 114.494C140.127 114.508 139.266 114.288 138.361 113.832ZM139.146 112.31C139.784 112.63 140.372 112.801 140.913 112.823C141.454 112.849 141.927 112.744 142.331 112.508C142.738 112.274 143.058 111.93 143.293 111.475C143.527 111.021 143.621 110.563 143.574 110.1C143.529 109.639 143.338 109.198 143 108.778C142.663 108.362 142.176 107.993 141.539 107.673C140.902 107.352 140.312 107.179 139.771 107.153C139.231 107.132 138.757 107.238 138.35 107.472C137.946 107.707 137.627 108.052 137.392 108.507C137.158 108.961 137.063 109.419 137.108 109.88C137.155 110.343 137.347 110.782 137.683 111.198C138.021 111.619 138.509 111.989 139.146 112.31Z" fill="#F3F7F8"/>
<path id="n_3" d="M136.631 124.247L128.988 118.764L129.886 117.543L137.719 117.708L137.765 117.645L132.559 113.91L133.569 112.537L141.212 118.021L140.309 119.249L132.475 119.078L132.426 119.144L137.636 122.882L136.631 124.247Z" fill="#F3F7F8"/>
<path id="t" d="M133.067 126.12L134.084 127.124L128.743 132.397L127.727 131.393L129.796 129.35L124.119 123.745L125.321 122.557L130.998 128.163L133.067 126.12Z" fill="#F3F7F8"/>
<path id="-_2" d="M118.631 133.98L117.82 132.878L121.261 130.409L122.072 131.511L118.631 133.98Z" fill="#F3F7F8"/>
<path id="e_7" d="M112.152 132.564L116.465 140.923L111 143.673L110.345 142.404L114.288 140.42L113.117 138.15L109.457 139.992L108.802 138.722L112.462 136.881L111.285 134.599L107.309 136.6L106.654 135.33L112.152 132.564Z" fill="#F3F7F8"/>
<path id="n_4" d="M100.181 147.495L97.2402 138.56L98.6835 138.097L104.907 142.829L104.982 142.805L102.979 136.719L104.601 136.198L107.542 145.134L106.09 145.6L99.8688 140.861L99.7901 140.887L101.795 146.977L100.181 147.495Z" fill="#F3F7F8"/>
<path id="d_2" d="M91.6938 139.567L94.8432 139.074L96.333 148.363L93.12 148.865C92.1973 149.009 91.3748 148.947 90.6526 148.679C89.9279 148.414 89.3315 147.964 88.8634 147.327C88.3954 146.691 88.084 145.89 87.9293 144.926C87.7741 143.958 87.8208 143.098 88.0692 142.347C88.3147 141.596 88.7449 140.981 89.3599 140.504C89.9719 140.027 90.7498 139.715 91.6938 139.567ZM93.3931 140.794L92.009 141.01C91.3615 141.111 90.8404 141.314 90.4456 141.617C90.0513 141.924 89.7831 142.33 89.6409 142.836C89.4992 143.344 89.4853 143.954 89.5993 144.664C89.7133 145.375 89.9167 145.947 90.2097 146.382C90.5032 146.82 90.8819 147.122 91.3458 147.288C91.8072 147.457 92.3525 147.493 92.9818 147.394L94.4158 147.17L93.3931 140.794Z" fill="#F3F7F8"/>
</g>
</g>
</g>
<defs>
<clipPath id="clip0_207_2">
<rect width="164" height="161" fill="white"/>
</clipPath>
</defs>
</svg>
