<svg width="164" height="161" viewBox="0 0 164 161" fill="none" xmlns="http://www.w3.org/2000/svg">
<g id="Group 9">
<g id="Group 7">
<ellipse id="Ellipse 4" cx="81.5237" cy="80.5" rx="81.5237" ry="80.5" fill="#3B4A4F"/>
<ellipse id="Ellipse 5" cx="81.5239" cy="80.4998" rx="46.0786" ry="45.5" fill="#222C30"/>
<g id="LOGO">
<path id="Vector" fill-rule="evenodd" clip-rule="evenodd" d="M70.4055 63.9778C68.3776 64.3267 66.8025 65.1974 65.6289 66.6183C65.1078 67.2491 64.9812 67.4777 63.3243 70.7801C62.2042 73.0127 61.8044 73.8775 61.782 74.1168C61.7405 74.5615 61.9763 74.9592 62.4095 75.1751L62.7335 75.3366L79.3772 75.3341C92.9819 75.332 96.1035 75.3141 96.4733 75.2357C97.1694 75.0882 97.7095 74.7919 98.2418 74.2655C98.6856 73.8266 98.7822 73.6666 99.6322 71.9641C100.135 70.9577 101.075 69.0765 101.722 67.7837C102.368 66.4908 102.916 65.3224 102.938 65.1872C102.99 64.8684 102.753 64.3748 102.434 64.1385L102.198 63.9634L86.3924 63.955C77.6995 63.9503 70.5054 63.9606 70.4055 63.9778ZM74.8019 78.7092C73.9736 78.8098 73.7313 78.8625 73.1051 79.0787C71.5696 79.6088 70.3151 80.5674 69.4076 81.9042C69.1731 82.2496 67.5354 85.4586 65.9492 88.6805C65.7571 89.0709 65.7184 89.2337 65.7184 89.6518C65.7184 90.1497 65.7262 90.1695 66.6014 91.9121C67.0871 92.879 68.3671 95.4337 69.4458 97.5891C70.7169 100.129 71.4666 101.549 71.5764 101.625C71.7864 101.771 72.355 101.779 72.556 101.64C72.7118 101.532 72.8374 101.289 76.0204 94.9258C78.1342 90.7003 78.1703 90.6414 78.8713 90.2732L79.2346 90.0823L84.067 90.0451C89.4409 90.0039 89.0666 90.0386 89.9168 89.502C90.7638 88.9674 90.8709 88.8081 92.2774 85.9923C92.928 84.6899 93.8669 82.8171 94.3638 81.8305C95.1807 80.2086 95.2643 80.0073 95.2351 79.7308C95.1946 79.3469 94.9342 78.9627 94.6038 78.7991C94.3655 78.6811 93.7487 78.6727 84.7937 78.6647C79.538 78.66 75.0417 78.68 74.8019 78.7092Z" fill="#E1EBEC"/>
<path id="Vector_2" fill-rule="evenodd" clip-rule="evenodd" d="M70.1371 64.0718C68.7348 64.2743 67.0356 65.1549 66.0365 66.1971C65.2785 66.9878 65.2327 67.0678 63.0311 71.4474C61.9235 73.6506 61.8301 73.8667 61.8301 74.2254C61.8301 74.5565 61.863 74.6513 62.0515 74.8633C62.5123 75.3815 61.0254 75.3428 79.5974 75.3197L96.3109 75.2989L96.7689 75.1393C97.4145 74.9144 97.7748 74.6882 98.2496 74.2099C98.6111 73.8456 98.785 73.5506 99.6527 71.8293C102.391 66.3979 102.837 65.4701 102.866 65.1476C102.903 64.7456 102.729 64.3882 102.386 64.1624L102.139 63.9995L86.3265 64.0085C77.6296 64.0134 70.3443 64.0419 70.1371 64.0718ZM74.0383 78.8531C73.4268 78.9848 72.7134 79.227 72.2216 79.4697C71.2545 79.9469 70.0142 81.03 69.4497 81.8901C69.2899 82.1337 68.5037 83.6407 67.7027 85.2391C65.5356 89.5633 65.7172 89.1587 65.7222 89.652C65.7262 90.0613 65.7877 90.2048 66.9673 92.5581C67.6498 93.9197 68.9271 96.4706 69.8058 98.2268C70.6845 99.983 71.4706 101.479 71.5525 101.552C71.6345 101.624 71.8268 101.698 71.9797 101.717C72.4202 101.77 72.6611 101.571 73.0054 100.871C73.1671 100.541 74.3597 98.1557 75.6556 95.5693C77.8907 91.1084 78.03 90.8514 78.3685 90.5653C78.9998 90.0318 78.8439 90.047 83.6979 90.0443C86.0788 90.043 88.2525 90.0133 88.5282 89.9782C89.2301 89.8889 90.0191 89.4927 90.5417 88.967C90.9748 88.5313 90.787 88.8858 94.3035 81.8666C95.0765 80.3235 95.148 80.1468 95.1459 79.7857C95.1441 79.4851 95.1023 79.3361 94.9708 79.1606C94.6085 78.6773 95.3499 78.7088 84.4915 78.7147C75.1954 78.7198 74.6221 78.7274 74.0383 78.8531Z" fill="#E1EBEC"/>
</g>
</g>
<g id="Group 8">
<path id="F" d="M84.7776 140.313V149.72H78.7513V148.292H83.0735V145.738H79.1647V144.31H83.0735V140.313H84.7776Z" fill="#F3F7F8"/>
<path id="e" d="M75.3997 140.012L73.9099 149.3L67.8652 148.354L68.0915 146.944L72.4525 147.626L72.857 145.104L68.8091 144.471L69.0353 143.061L73.0832 143.694L73.4899 141.159L69.0925 140.471L69.3187 139.061L75.3997 140.012Z" fill="#F3F7F8"/>
<path id="l" d="M66.4827 138.39L63.5425 147.326L61.9199 146.805L64.4136 139.227L60.4686 137.961L60.9151 136.604L66.4827 138.39Z" fill="#F3F7F8"/>
<path id="i" d="M49.7267 141.9L54.0403 133.541L55.5625 134.307L51.2489 142.666L49.7267 141.9Z" fill="#F3F7F8"/>
<path id="p" d="M49.1458 130.848L43.5709 138.425L40.7046 136.368C40.1174 135.947 39.7047 135.485 39.4663 134.982C39.2254 134.478 39.1427 133.963 39.2181 133.436C39.2893 132.911 39.5018 132.408 39.8557 131.927C40.2132 131.441 40.634 131.083 41.1182 130.854C41.6024 130.625 42.1258 130.546 42.6886 130.618C43.2495 130.693 43.8249 130.942 44.4145 131.365L46.3142 132.728L45.4839 133.856L43.7709 132.627C43.4275 132.381 43.1028 132.238 42.7968 132.2C42.4907 132.161 42.2092 132.208 41.9523 132.34C41.6928 132.47 41.4642 132.67 41.2664 132.939C41.0686 133.208 40.9479 133.483 40.9042 133.764C40.8581 134.044 40.904 134.32 41.042 134.592C41.1756 134.865 41.4154 135.126 41.7612 135.374L43.0301 136.284L47.7612 129.854L49.1458 130.848Z" fill="#F3F7F8"/>
<path id="e_2" d="M41.1998 124.8L34.5062 131.409L30.1528 127.11L31.1692 126.107L34.3101 129.208L36.1273 127.414L33.212 124.535L34.2284 123.531L37.1438 126.41L38.9708 124.606L35.8038 121.479L36.8202 120.475L41.1998 124.8Z" fill="#F3F7F8"/>
<path id="U" d="M18.5367 109.839L17.7552 108.325L23.2453 105.563C23.847 105.26 24.4494 105.135 25.0522 105.188C25.6537 105.239 26.2142 105.454 26.734 105.833C27.2509 106.214 27.6849 106.745 28.036 107.425C28.3884 108.108 28.5687 108.768 28.5769 109.405C28.5824 110.043 28.429 110.617 28.1168 111.127C27.8046 111.638 27.3476 112.044 26.7458 112.347L21.2558 115.109L20.4744 113.595L25.8372 110.896C26.1874 110.72 26.4599 110.487 26.6548 110.197C26.8483 109.904 26.9507 109.579 26.962 109.22C26.9705 108.863 26.8758 108.492 26.6778 108.108C26.4798 107.725 26.2319 107.431 25.9341 107.228C25.6322 107.023 25.3051 106.914 24.9529 106.899C24.6008 106.884 24.2496 106.965 23.8995 107.141L18.5367 109.839Z" fill="#F3F7F8"/>
<path id="r" d="M25.4428 102.325L16.4856 105.199L15.383 101.848C15.1571 101.161 15.0872 100.547 15.1731 100.005C15.2581 99.46 15.4771 98.999 15.8302 98.6221C16.1794 98.2431 16.6397 97.962 17.2112 97.7786C17.7856 97.5943 18.3244 97.5565 18.8275 97.6652C19.3269 97.7719 19.7692 98.0239 20.1546 98.4213C20.5371 98.8195 20.8413 99.3618 21.0671 100.048L21.8525 102.435L20.5054 102.867L19.7919 100.699C19.6598 100.297 19.4962 99.9863 19.3012 99.7659C19.1033 99.5464 18.8763 99.4102 18.6203 99.3573C18.3605 99.3024 18.0717 99.3259 17.7539 99.4279C17.436 99.5298 17.1855 99.6794 17.0021 99.8765C16.8158 100.075 16.7065 100.32 16.6741 100.614C16.6388 100.908 16.6876 101.257 16.8207 101.662L17.3088 103.145L24.9101 100.706L25.4428 102.325ZM19.8651 99.011L23.1959 95.4967L23.7903 97.303L20.4466 100.778L19.8651 99.011Z" fill="#F3F7F8"/>
<path id="b" d="M23.5509 92.5053L14.257 93.9589L13.6867 90.4032C13.579 89.732 13.5954 89.1576 13.7359 88.68C13.8729 88.1999 14.1052 87.8211 14.4328 87.5436C14.76 87.2631 15.1535 87.0869 15.6134 87.015C15.9915 86.9558 16.3269 86.9778 16.6194 87.0808C16.9089 87.1843 17.1565 87.3455 17.3622 87.5643C17.5679 87.7832 17.7313 88.0381 17.8524 88.3291L17.9431 88.3149C17.9084 87.9825 17.9591 87.6507 18.0952 87.3195C18.2277 86.9858 18.4448 86.6961 18.7466 86.4506C19.0483 86.205 19.4352 86.0453 19.9072 85.9715C20.3882 85.8963 20.8395 85.945 21.2611 86.1177C21.6796 86.2909 22.0369 86.5946 22.3329 87.0287C22.6289 87.4628 22.8339 88.0351 22.9479 88.7456L23.5509 92.5053ZM21.8743 91.0428L21.584 89.2332C21.486 88.6225 21.299 88.2008 21.0229 87.9681C20.7433 87.7329 20.4189 87.6442 20.0498 87.7019C19.7745 87.7449 19.5373 87.8518 19.3383 88.0224C19.1362 88.1934 18.9918 88.4144 18.905 88.6852C18.8152 88.9565 18.7981 89.266 18.8539 89.6137L19.1514 91.4686L21.8743 91.0428ZM17.9398 91.6581L17.6728 89.9937C17.6262 89.7034 17.5313 89.4502 17.3881 89.2339C17.2419 89.0181 17.0597 88.8591 16.8417 88.7568C16.6202 88.652 16.3734 88.6209 16.1011 88.6635C15.7411 88.7198 15.4649 88.8931 15.2727 89.1835C15.08 89.4709 15.0234 89.8625 15.103 90.3584L15.3758 92.0591L17.9398 91.6581Z" fill="#F3F7F8"/>
<path id="a" d="M22.3613 82.9438V84.7627L12.9544 81.451V79.3473L22.3613 76.031L22.3613 77.8499L14.8836 80.3624V80.4359L22.3613 82.9438ZM18.673 82.884V77.9234H20.0418V82.884H18.673Z" fill="#F3F7F8"/>
<path id="n" d="M14.4122 66.0254L23.7061 67.4789L23.466 68.9755L16.4335 72.362L16.4211 72.4391L22.7517 73.4291L22.4818 75.1117L13.1879 73.6582L13.4294 72.1525L20.4658 68.7713L20.4789 68.6897L14.1437 67.6989L14.4122 66.0254Z" fill="#F3F7F8"/>
<path id="e_3" d="M23.4769 64.5804L14.5197 61.7066L16.432 55.895L17.7922 56.3314L16.4125 60.5243L18.8443 61.3045L20.1249 57.4126L21.4851 57.849L20.2045 61.7409L22.6493 62.5253L24.0405 58.2975L25.4007 58.7339L23.4769 64.5804Z" fill="#F3F7F8"/>
<path id="k" d="M26.5843 56.0062L18.181 51.7783L18.9624 50.264L22.8235 52.2066L22.8761 52.1045L20.698 46.9005L21.6521 45.0515L23.7547 50.1815L30.0701 49.2508L29.1307 51.0713L24.2412 51.7527L24.8628 53.2326L27.3657 54.4919L26.5843 56.0062Z" fill="#F3F7F8"/>
<path id="-" d="M37.5806 33.2336L38.5546 34.1954L35.5411 37.171L34.5672 36.2092L37.5806 33.2336Z" fill="#F3F7F8"/>
<path id="D" d="M53.7993 27.5099L50.9517 28.9426L46.6381 20.583L49.5432 19.1214C50.3775 18.7017 51.1805 18.5085 51.9523 18.5418C52.7254 18.571 53.4341 18.816 54.0784 19.2767C54.7228 19.7375 55.2689 20.4019 55.7168 21.27C56.1662 22.1407 56.3896 22.971 56.387 23.7606C56.3872 24.5489 56.1686 25.2639 55.7313 25.9055C55.2968 26.5457 54.6528 27.0805 53.7993 27.5099ZM51.7979 26.8665L53.0493 26.2368C53.6347 25.9423 54.0682 25.5905 54.3499 25.1814C54.6301 24.7697 54.7592 24.302 54.7371 23.7784C54.7136 23.252 54.5369 22.6691 54.2069 22.0297C53.8769 21.3902 53.5046 20.9091 53.09 20.5864C52.674 20.261 52.2191 20.0905 51.7253 20.075C51.2328 20.0555 50.7021 20.1888 50.1331 20.4751L48.8365 21.1274L51.7979 26.8665Z" fill="#F3F7F8"/>
<path id="e_4" d="M60.7326 24.3834L57.7923 15.4478L63.618 13.5787L64.0645 14.9356L59.8614 16.2841L60.6597 18.71L64.5609 17.4583L65.0074 18.8152L61.1062 20.0669L61.9087 22.5059L66.1467 21.1461L66.5932 22.5031L60.7326 24.3834Z" fill="#F3F7F8"/>
<path id="s" d="M73.4451 14.3191C73.3392 13.9296 73.1112 13.6491 72.7612 13.4776C72.4142 13.3057 71.9911 13.2587 71.4919 13.3368C71.141 13.3917 70.8484 13.4917 70.6143 13.6367C70.3802 13.7818 70.2111 13.9555 70.1071 14.1577C70.0031 14.36 69.9682 14.5777 70.0025 14.811C70.0336 15.0045 70.1043 15.1654 70.2149 15.2938C70.3284 15.4217 70.4703 15.5235 70.6406 15.5992C70.8105 15.6718 70.9945 15.7267 71.1927 15.7639C71.391 15.801 71.589 15.8274 71.7869 15.8429L72.6931 15.9244C73.0572 15.9511 73.4122 16.0087 73.7582 16.0972C74.1073 16.1852 74.4273 16.3149 74.7184 16.4863C75.0126 16.6572 75.2593 16.8805 75.4586 17.1562C75.6578 17.4319 75.7897 17.7708 75.8542 18.1729C75.9415 18.7171 75.8792 19.2181 75.6673 19.6759C75.4549 20.1306 75.1042 20.5155 74.6151 20.8307C74.1286 21.1423 73.5132 21.3563 72.769 21.4727C72.0459 21.5858 71.4002 21.5721 70.8319 21.4317C70.2665 21.2907 69.7997 21.029 69.4313 20.6465C69.066 20.2635 68.8217 19.7656 68.6986 19.1525L70.355 18.8935C70.4311 19.2132 70.5741 19.4667 70.784 19.6539C70.9939 19.8412 71.248 19.9657 71.5463 20.0275C71.8477 20.0888 72.1738 20.0921 72.5248 20.0372C72.8908 19.9799 73.2028 19.8754 73.4607 19.7234C73.721 19.5681 73.9141 19.3798 74.0399 19.1587C74.1652 18.9345 74.2081 18.6892 74.1684 18.4226C74.1266 18.1812 74.0235 17.9928 73.8591 17.8573C73.6942 17.7188 73.4778 17.6163 73.2097 17.5498C72.9441 17.4797 72.6382 17.4284 72.2918 17.3958L71.1908 17.289C70.3939 17.2122 69.741 17.009 69.2323 16.6795C68.7261 16.3464 68.4196 15.8473 68.3129 15.1822C68.2252 14.6349 68.2965 14.1325 68.5271 13.6749C68.7606 13.2169 69.1164 12.8343 69.5943 12.5271C70.0718 12.2169 70.6357 12.0109 71.2862 11.9092C71.9457 11.806 72.542 11.8305 73.075 11.9827C73.6106 12.1314 74.053 12.3861 74.4024 12.7468C74.7513 13.1044 74.9722 13.5441 75.0652 14.0657L73.4451 14.3191Z" fill="#F3F7F8"/>
<path id="e_5" d="M79.3334 20.6152V11.2083L85.4516 11.2083V12.6368L81.0375 12.6368V15.1907L85.1347 15.1907V16.6191H81.0375V19.1867H85.4883V20.6152H79.3334Z" fill="#F3F7F8"/>
<path id="n_2" d="M96.8525 12.6478L95.3627 21.936L93.8652 21.7018L90.5007 14.6902L90.4236 14.6782L89.4088 21.0048L87.7252 20.7415L89.215 11.4533L90.7216 11.689L94.0808 18.7043L94.1625 18.7171L95.178 12.3859L96.8525 12.6478Z" fill="#F3F7F8"/>
<path id="v" d="M101.489 13.8532L101.505 21.6344L101.597 21.6639L106.238 15.3771L108.023 15.9497L101.925 23.8721L99.9216 23.2294L99.7085 13.2821L101.489 13.8532Z" fill="#F3F7F8"/>
<path id="o" d="M115.864 24.9687C115.399 25.8694 114.832 26.5555 114.161 27.0271C113.495 27.4973 112.782 27.7559 112.024 27.8029C111.269 27.8513 110.523 27.6904 109.787 27.3202C109.051 26.95 108.48 26.4482 108.073 25.8149C107.67 25.1803 107.464 24.4579 107.454 23.6477C107.449 22.8362 107.679 21.9815 108.142 21.0835C108.607 20.1828 109.172 19.4973 109.839 19.0271C110.509 18.5555 111.222 18.2956 111.978 18.2472C112.736 18.2002 113.483 18.3618 114.219 18.732C114.955 19.1022 115.525 19.6033 115.929 20.2352C116.336 20.8685 116.542 21.5909 116.547 22.4024C116.557 23.2125 116.329 24.068 115.864 24.9687ZM114.334 24.1987C114.661 23.5646 114.837 22.9797 114.862 22.4438C114.891 21.9066 114.788 21.4383 114.553 21.039C114.319 20.637 113.974 20.3211 113.517 20.0912C113.061 19.8614 112.599 19.7713 112.132 19.821C111.667 19.868 111.221 20.0603 110.796 20.398C110.374 20.7343 110 21.2195 109.672 21.8535C109.345 22.4875 109.167 23.0732 109.138 23.6104C109.113 24.1462 109.217 24.6152 109.451 25.0172C109.686 25.4165 110.032 25.7311 110.489 25.9609C110.945 26.1908 111.406 26.2822 111.872 26.2352C112.338 26.1855 112.783 25.9925 113.204 25.6562C113.63 25.3186 114.006 24.8327 114.334 24.1987Z" fill="#F3F7F8"/>
<path id="l_2" d="M115.145 30.1108L120.72 22.5339L122.104 23.5273L117.376 29.9536L120.742 32.3687L119.896 33.5193L115.145 30.1108Z" fill="#F3F7F8"/>
<path id="v_2" d="M130.003 29.7753L126.477 36.6978L126.545 36.7656L133.553 33.2801L134.886 34.5969L125.833 38.8763L124.336 37.3982L128.673 28.4618L130.003 29.7753Z" fill="#F3F7F8"/>
<path id="e_6" d="M129.588 42.9785L137.232 37.495L140.858 42.423L139.697 43.2557L137.081 39.7003L135.006 41.189L137.434 44.4891L136.273 45.3218L133.845 42.0217L131.759 43.5184L134.397 47.1034L133.236 47.9361L129.588 42.9785Z" fill="#F3F7F8"/>
<path id="d" d="M136.196 53.1561L134.734 50.3233L143.137 46.0954L144.629 48.9853C145.057 49.8153 145.257 50.6129 145.228 51.3781C145.203 52.1447 144.96 52.8461 144.499 53.4824C144.039 54.1186 143.372 54.6563 142.499 55.0953C141.624 55.5357 140.788 55.7523 139.992 55.745C139.197 55.7404 138.475 55.5194 137.825 55.0818C137.177 54.647 136.634 54.0051 136.196 53.1561ZM136.833 51.175L137.475 52.4199C137.776 53.0023 138.133 53.4343 138.547 53.7161C138.964 53.9965 139.436 54.1273 139.964 54.1086C140.495 54.0884 141.081 53.9166 141.724 53.5932C142.367 53.2698 142.85 52.9034 143.173 52.4942C143.498 52.0836 143.668 51.6334 143.68 51.1438C143.697 50.6554 143.559 50.1283 143.267 49.5623L142.602 48.2724L136.833 51.175Z" fill="#F3F7F8"/>
<path id="o_2" d="M145.794 64.7963C144.829 65.1059 143.943 65.1908 143.136 65.0509C142.333 64.9129 141.648 64.5927 141.079 64.09C140.512 63.5903 140.1 62.9492 139.842 62.1668C139.585 61.3844 139.536 60.6249 139.697 59.8884C139.861 59.1539 140.227 58.4964 140.793 57.9158C141.364 57.3373 142.13 56.8937 143.092 56.5849C144.057 56.2753 144.941 56.1894 145.744 56.3274C146.551 56.4673 147.238 56.7871 147.805 57.2868C148.374 57.7894 148.787 58.432 149.044 59.2144C149.302 59.9968 149.35 60.7549 149.188 61.4884C149.027 62.2249 148.662 62.8825 148.092 63.461C147.525 64.0415 146.759 64.4866 145.794 64.7963ZM145.259 63.1688C145.938 62.9509 146.476 62.6609 146.873 62.2989C147.273 61.9388 147.532 61.5343 147.648 61.0853C147.768 60.6353 147.748 60.1674 147.588 59.6817C147.428 59.1959 147.166 58.8057 146.801 58.511C146.44 58.2154 145.989 58.0368 145.45 57.975C144.914 57.9153 144.307 57.9944 143.628 58.2124C142.948 58.4303 142.408 58.7193 142.008 59.0794C141.611 59.4414 141.353 59.8474 141.234 60.2974C141.117 60.7464 141.139 61.2138 141.298 61.6995C141.458 62.1853 141.719 62.576 142.081 62.8716C142.445 63.1662 142.895 63.3434 143.431 63.4032C143.97 63.4649 144.579 63.3868 145.259 63.1688Z" fill="#F3F7F8"/>
<path id="r_2" d="M140.593 67.7783L149.887 66.3248L150.445 69.8078C150.56 70.5214 150.532 71.1394 150.361 71.662C150.191 72.1876 149.902 72.6093 149.494 72.9273C149.09 73.2478 148.591 73.4544 147.998 73.5472C147.402 73.6404 146.864 73.5943 146.385 73.4089C145.909 73.2261 145.512 72.9085 145.195 72.4561C144.88 72.0032 144.666 71.4199 144.551 70.7064L144.153 68.2256L145.551 68.007L145.913 70.261C145.98 70.6783 146.092 71.0109 146.25 71.259C146.41 71.5066 146.613 71.6764 146.857 71.7684C147.105 71.8629 147.393 71.8844 147.723 71.8328C148.053 71.7813 148.324 71.6723 148.536 71.5058C148.751 71.3389 148.898 71.1129 148.976 70.828C149.058 70.5425 149.065 70.1896 148.997 69.7694L148.75 68.2274L140.863 69.4609L140.593 67.7783ZM145.574 71.918L141.731 74.876L141.43 72.9984L145.279 70.0812L145.574 71.918Z" fill="#F3F7F8"/>
<path id="F_2" d="M141.567 87.0747L150.861 88.5283L149.907 94.4785L148.495 94.2578L149.18 89.9901L146.657 89.5955L146.038 93.455L144.626 93.2343L145.245 89.3748L141.297 88.7573L141.567 87.0747Z" fill="#F3F7F8"/>
<path id="r_3" d="M140.994 95.6771L149.952 98.5509L148.849 101.902C148.623 102.588 148.314 103.126 147.922 103.514C147.529 103.906 147.077 104.152 146.567 104.252C146.059 104.356 145.519 104.316 144.948 104.133C144.373 103.948 143.915 103.666 143.573 103.286C143.232 102.91 143.024 102.45 142.949 101.904C142.877 101.36 142.953 100.745 143.179 100.059L143.965 97.6719L145.312 98.1041L144.598 100.273C144.466 100.674 144.413 101.02 144.44 101.312C144.469 101.604 144.572 101.846 144.747 102.038C144.925 102.233 145.173 102.382 145.49 102.483C145.808 102.585 146.1 102.61 146.366 102.557C146.634 102.505 146.869 102.369 147.07 102.151C147.274 101.933 147.442 101.622 147.575 101.218L148.063 99.7346L140.462 97.2958L140.994 95.6771ZM143.534 101.595L138.748 102.505L139.342 100.699L144.116 99.8283L143.534 101.595Z" fill="#F3F7F8"/>
<path id="o_3" d="M138.36 113.832C137.454 113.377 136.766 112.818 136.294 112.156C135.824 111.497 135.568 110.792 135.525 110.041C135.481 109.292 135.647 108.551 136.025 107.819C136.403 107.087 136.912 106.518 137.553 106.11C138.196 105.707 138.925 105.498 139.742 105.484C140.56 105.474 141.421 105.696 142.324 106.15C143.229 106.606 143.917 107.163 144.387 107.821C144.858 108.483 145.116 109.189 145.16 109.937C145.203 110.689 145.036 111.431 144.658 112.163C144.28 112.895 143.772 113.463 143.132 113.868C142.491 114.276 141.762 114.485 140.943 114.494C140.126 114.508 139.265 114.288 138.36 113.832ZM139.145 112.31C139.783 112.63 140.371 112.801 140.912 112.823C141.453 112.849 141.926 112.744 142.33 112.508C142.737 112.274 143.057 111.93 143.292 111.475C143.526 111.021 143.62 110.563 143.573 110.1C143.528 109.639 143.337 109.198 142.999 108.778C142.662 108.362 142.175 107.993 141.538 107.673C140.901 107.352 140.311 107.179 139.77 107.153C139.23 107.132 138.756 107.238 138.349 107.472C137.945 107.707 137.626 108.052 137.391 108.507C137.157 108.961 137.062 109.419 137.107 109.88C137.154 110.343 137.346 110.782 137.682 111.198C138.02 111.619 138.508 111.989 139.145 112.31Z" fill="#F3F7F8"/>
<path id="n_3" d="M136.63 124.247L128.987 118.764L129.885 117.543L137.718 117.708L137.764 117.645L132.558 113.91L133.568 112.537L141.211 118.021L140.308 119.249L132.474 119.078L132.425 119.144L137.635 122.882L136.63 124.247Z" fill="#F3F7F8"/>
<path id="t" d="M133.067 126.12L134.084 127.124L128.743 132.397L127.727 131.393L129.796 129.35L124.119 123.745L125.321 122.557L130.998 128.163L133.067 126.12Z" fill="#F3F7F8"/>
<path id="-_2" d="M118.631 133.98L117.82 132.878L121.261 130.409L122.072 131.511L118.631 133.98Z" fill="#F3F7F8"/>
<path id="e_7" d="M112.151 132.564L116.464 140.923L110.999 143.673L110.344 142.404L114.287 140.42L113.116 138.15L109.456 139.992L108.801 138.722L112.461 136.881L111.284 134.599L107.308 136.6L106.653 135.33L112.151 132.564Z" fill="#F3F7F8"/>
<path id="n_4" d="M100.18 147.495L97.2397 138.56L98.683 138.097L104.906 142.829L104.981 142.805L102.978 136.719L104.6 136.198L107.541 145.134L106.089 145.6L99.8683 140.861L99.7896 140.887L101.794 146.977L100.18 147.495Z" fill="#F3F7F8"/>
<path id="d_2" d="M91.693 139.567L94.8424 139.074L96.3322 148.363L93.1192 148.865C92.1965 149.009 91.374 148.947 90.6518 148.679C89.9271 148.414 89.3307 147.964 88.8626 147.327C88.3946 146.691 88.0832 145.89 87.9285 144.926C87.7733 143.958 87.82 143.098 88.0684 142.347C88.3139 141.596 88.7441 140.981 89.3591 140.504C89.9711 140.027 90.749 139.715 91.693 139.567ZM93.3923 140.794L92.0082 141.01C91.3607 141.111 90.8396 141.314 90.4448 141.617C90.0505 141.924 89.7823 142.33 89.6401 142.836C89.4984 143.344 89.4845 143.954 89.5985 144.664C89.7125 145.375 89.9159 145.947 90.2089 146.382C90.5024 146.82 90.8811 147.122 91.345 147.288C91.8064 147.457 92.3517 147.493 92.981 147.394L94.415 147.17L93.3923 140.794Z" fill="#F3F7F8"/>
</g>
</g>
</svg>
