<svg width="66" height="48" viewBox="0 0 66 48" fill="none" xmlns="http://www.w3.org/2000/svg">
<path fill-rule="evenodd" clip-rule="evenodd" d="M21.8722 7.66994C19.8444 8.01881 18.2693 8.88949 17.0956 10.3105C16.5746 10.9413 16.448 11.1699 14.7911 14.4723C13.671 16.7049 13.2712 17.5697 13.2488 17.8089C13.2073 18.2536 13.4431 18.6514 13.8763 18.8673L14.2003 19.0287L30.844 19.0262C44.4487 19.0241 47.5703 19.0062 47.9401 18.9278C48.6362 18.7803 49.1763 18.484 49.7086 17.9576C50.1524 17.5188 50.249 17.3588 51.099 15.6562C51.6014 14.6499 52.5416 12.7687 53.1883 11.4758C53.835 10.183 54.3823 9.01456 54.4045 8.8793C54.4569 8.56049 54.2199 8.06696 53.9008 7.8306L53.6644 7.65551L37.8592 7.64712C29.1663 7.64245 21.9722 7.65279 21.8722 7.66994Z" fill="#E1EBEC"/>
<path d="M24.5723 22.7709C25.1985 22.5547 25.4408 22.502 26.269 22.4014C26.5088 22.3722 31.0051 22.3522 36.2608 22.3569C45.2159 22.3649 45.8327 22.3733 46.071 22.4913C46.4014 22.6549 46.6618 23.0391 46.7023 23.423C46.7315 23.6995 46.6479 23.9008 45.831 25.5226C45.3341 26.5093 44.3952 28.3821 43.7446 29.6845C42.3381 32.5003 42.2309 32.6596 41.3839 33.1942C40.5338 33.7308 40.908 33.6961 35.5342 33.7373L30.7018 33.7745L30.3384 33.9654C29.6375 34.3336 29.6014 34.3925 27.4876 38.618C24.3045 44.9812 24.179 45.2245 24.0232 45.3323C23.8222 45.4714 23.2535 45.4628 23.0436 45.3176C22.9338 45.2417 22.1841 43.8215 20.913 41.2813C19.8343 39.1259 18.5543 36.5712 18.0686 35.6043C17.1933 33.8617 17.1855 33.8419 17.1855 33.344C17.1855 32.9259 17.2243 32.763 17.4164 32.3727C19.0025 29.1508 20.6402 25.9418 20.8747 25.5964C21.7823 24.2596 23.0368 23.301 24.5723 22.7709Z" fill="#577D83" fill-opacity="0.56"/>
</svg>
